<?xml version="1.0" encoding="utf-8"?>
<!-- Generator: Adobe Illustrator 19.2.0, SVG Export Plug-In . SVG Version: 6.00 Build 0)  -->
<svg version="1.1" xmlns="http://www.w3.org/2000/svg" xmlns:xlink="http://www.w3.org/1999/xlink" x="0px" y="0px"
	 viewBox="0 0 174 136" style="enable-background:new 0 0 174 136;" xml:space="preserve">
<style type="text/css">
	.st0{fill:#D41920;}
	.st1{fill:#333333;}
	.st2{fill:#ED1C24;}
	.st3{fill:#FFFFFF;}
	.st4{fill:none;stroke:#000000;stroke-width:5;stroke-miterlimit:10;}
	.st5{fill:#ED1C24;fill-opacity:0.9;}
	.st6{fill:none;stroke:#CCCCCC;stroke-width:3;stroke-miterlimit:10;}
	.st7{fill:#CCCCCC;}
	.st8{fill:#CE5F7F;}
	.st9{fill:#231F20;}
	.st10{fill:#F4F4F4;}
	.st11{opacity:0.9;}
	.st12{fill:#FBFBFB;}
	.st13{fill:#FCFCFC;}
	.st14{fill:#FDFDFD;}
	.st15{fill:#FAFAFA;}
	.st16{fill:#FEFEFE;}
	.st17{fill:none;}
	.st18{fill-rule:evenodd;clip-rule:evenodd;fill:#F4F4F4;}
	.st19{fill:#DFDFDF;stroke:#000000;stroke-width:0.5;stroke-miterlimit:10;}
	.st20{stroke:#000000;stroke-width:0.5;stroke-miterlimit:10;}
	.st21{stroke:#000000;stroke-miterlimit:10;}
	.st22{fill:none;stroke:#000000;stroke-width:15;stroke-miterlimit:10;}
	.st23{fill:none;stroke:#000000;stroke-width:10;stroke-linecap:round;stroke-miterlimit:10;}
	.st24{fill:none;stroke:#000000;stroke-width:10;stroke-miterlimit:10;}
	.st25{fill:none;stroke:#A11318;stroke-width:10;stroke-miterlimit:10;}
	.st26{fill:none;stroke:#FFFFFF;stroke-width:10;stroke-miterlimit:10;}
	.st27{fill:#A11318;}
	.st28{fill:#A11318;stroke:#A11318;stroke-width:10;stroke-linecap:square;stroke-miterlimit:10;}
	.st29{fill:none;stroke:#A11318;stroke-width:10;stroke-linecap:square;stroke-miterlimit:10;}
	.st30{fill:#323232;}
	.st31{fill:#CCCCCC;fill-opacity:0.5;}
	.st32{opacity:0.5;}
</style>
<g id="Слой_2">
</g>
<g id="Слой_3">
</g>
<g id="Слой_1">
	<circle class="st2" cx="50.5" cy="62.5" r="50.5"/>
	<g>
		<path d="M74,18c29.8,0,54,24.2,54,54s-24.2,54-54,54s-54-24.2-54-54S44.2,18,74,18 M74,8C38.7,8,10,36.7,10,72s28.7,64,64,64
			s64-28.7,64-64S109.3,8,74,8L74,8z"/>
	</g>
	<line class="st23" x1="74.3" y1="71.7" x2="100.5" y2="45.5"/>
	<circle cx="74" cy="72" r="10"/>
	<circle cx="75" cy="33" r="5"/>
	<circle cx="35" cy="72" r="5"/>
	<circle cx="113.2" cy="72.1" r="5"/>
	<path class="st2" d="M166,64c4.4,0,8,3.6,8,8s-3.6,8-8,8s-16-8-16-8S161.6,64,166,64z"/>
	<path class="st2" d="M132.7,2.3c3.1-3.1,8.2-3.1,11.3,0s3.1,8.2,0,11.3s-17,5.7-17,5.7S129.5,5.5,132.7,2.3z"/>
</g>
</svg>
