<?xml version="1.0" encoding="utf-8"?>
<!-- Generator: Adobe Illustrator 19.2.0, SVG Export Plug-In . SVG Version: 6.00 Build 0)  -->
<svg version="1.1" xmlns="http://www.w3.org/2000/svg" xmlns:xlink="http://www.w3.org/1999/xlink" x="0px" y="0px"
	 viewBox="0 0 137 219.5" style="enable-background:new 0 0 137 219.5;" xml:space="preserve">
<style type="text/css">
	.st0{fill:#D41920;}
	.st1{fill:#333333;}
	.st2{fill:#ED1C24;}
	.st3{fill:#FFFFFF;}
	.st4{fill:none;stroke:#000000;stroke-width:5;stroke-miterlimit:10;}
	.st5{fill:#ED1C24;fill-opacity:0.9;}
	.st6{fill:none;stroke:#CCCCCC;stroke-width:3;stroke-miterlimit:10;}
	.st7{fill:#CCCCCC;}
	.st8{fill:#CE5F7F;}
	.st9{fill:#231F20;}
	.st10{fill:#F4F4F4;}
	.st11{opacity:0.9;}
	.st12{fill:#FBFBFB;}
	.st13{fill:#FCFCFC;}
	.st14{fill:#FDFDFD;}
	.st15{fill:#FAFAFA;}
	.st16{fill:#FEFEFE;}
	.st17{fill:none;}
	.st18{fill-rule:evenodd;clip-rule:evenodd;fill:#F4F4F4;}
	.st19{fill:#DFDFDF;stroke:#000000;stroke-width:0.5;stroke-miterlimit:10;}
	.st20{stroke:#000000;stroke-width:0.5;stroke-miterlimit:10;}
	.st21{stroke:#000000;stroke-miterlimit:10;}
	.st22{fill:none;stroke:#000000;stroke-width:15;stroke-miterlimit:10;}
	.st23{fill:none;stroke:#000000;stroke-width:10;stroke-linecap:round;stroke-miterlimit:10;}
	.st24{fill:none;stroke:#000000;stroke-width:10;stroke-miterlimit:10;}
	.st25{fill:none;stroke:#A11318;stroke-width:10;stroke-miterlimit:10;}
	.st26{fill:none;stroke:#FFFFFF;stroke-width:10;stroke-miterlimit:10;}
	.st27{fill:#A11318;}
	.st28{fill:#A11318;stroke:#A11318;stroke-width:10;stroke-linecap:square;stroke-miterlimit:10;}
	.st29{fill:none;stroke:#A11318;stroke-width:10;stroke-linecap:square;stroke-miterlimit:10;}
	.st30{fill:#323232;}
	.st31{fill:#CCCCCC;fill-opacity:0.5;}
	.st32{opacity:0.5;}
</style>
<g id="Слой_2">
</g>
<g id="Слой_3">
</g>
<g id="Слой_1">
	<g>
		<rect x="15" y="58.5" class="st2" width="70" height="127"/>
	</g>
	<line class="st23" x1="5" y1="58.5" x2="81" y2="58.5"/>
	<path class="st2" d="M129,48.5c4.4,0,8,3.6,8,8s-3.6,8-8,8c-4.4,0-16-8-16-8S124.6,48.5,129,48.5z"/>
	<path class="st2" d="M71,211.5c0,4.4-3.6,8-8,8s-8-3.6-8-8s8-16,8-16S71,207.1,71,211.5z"/>
	<g>
		<path d="M92,10.5v154H33v-154H92 M102,0.5H23v174h79V0.5L102,0.5z"/>
	</g>
</g>
</svg>
