<?xml version="1.0" encoding="utf-8"?>
<!-- Generator: Adobe Illustrator 19.2.0, SVG Export Plug-In . SVG Version: 6.00 Build 0)  -->
<svg version="1.1" id="Слой_1" xmlns="http://www.w3.org/2000/svg" xmlns:xlink="http://www.w3.org/1999/xlink" x="0px" y="0px"
	 viewBox="0 0 64 64" style="enable-background:new 0 0 64 64;" xml:space="preserve">
<style type="text/css">
	.st0{fill:#CE5F7F;}
	.st1{fill:#231F20;}
	.st2{fill:#ED1C24;}
	.st3{fill:#CCCCCC;}
	.st4{fill:#CCCCCC;}
</style>
<g>
	<g>
		<g>
			<path class="st3" d="M34.1,0.1c-19.3-1.2-35.2,14.7-34,34C1.1,50,14,62.9,29.9,63.9c19.3,1.2,35.2-14.7,34-34
				C62.9,14,50,1.1,34.1,0.1z M47.9,24.8l0,1c0,10.4-7.9,22.4-22.4,22.4c-4.4,0-8.6-1.3-12.1-3.5c0.6,0.1,1.2,0.1,1.9,0.1
				c3.7,0,7.1-1.3,9.8-3.4c-3.4-0.1-6.4-2.3-7.4-5.5c0.5,0.1,1,0.1,1.5,0.1c0.7,0,1.4-0.1,2.1-0.3c-3.6-0.7-6.3-3.9-6.3-7.7V28
				c1.1,0.6,2.3,0.9,3.6,1c-2.1-1.4-3.5-3.8-3.5-6.6c0-1.4,0.4-2.8,1.1-4c3.9,4.8,9.7,7.9,16.2,8.2c-0.2-0.7-0.2-1.5-0.2-2.3
				c0.2-3.8,3.3-7,7.2-7.4c2.5-0.2,4.8,0.8,6.4,2.5c1.8-0.4,3.5-1,5-1.9C50.2,19.5,49,21,47.3,22c1.6-0.2,3.1-0.6,4.5-1.2
				C50.8,22.3,49.5,23.7,47.9,24.8z"/>
		</g>
	</g>
</g>
</svg>
