<?xml version="1.0" encoding="utf-8"?>
<!-- Generator: Adobe Illustrator 19.2.0, SVG Export Plug-In . SVG Version: 6.00 Build 0)  -->
<svg version="1.1" id="Слой_1" xmlns="http://www.w3.org/2000/svg" xmlns:xlink="http://www.w3.org/1999/xlink" x="0px" y="0px"
	 viewBox="0 0 64 64" style="enable-background:new 0 0 64 64;" xml:space="preserve">
<style type="text/css">
	.st0{fill:#CE5F7F;}
	.st1{fill:#231F20;}
	.st2{fill:#ED1C24;}
	.st3{fill:#CCCCCC;}
	.st4{fill:#CCCCCC;}
</style>
<path class="st3" d="M34.1,0.1c-19.3-1.2-35.2,14.7-34,34C1.1,50,14,62.9,29.9,63.9c19.3,1.2,35.2-14.7,34-34
	C62.9,14,50,1.1,34.1,0.1z M50.3,46l-5.6,0.1c0,0-1.2,0.2-2.8-0.9c-2.1-1.4-4.1-5.2-5.6-4.7c-1.6,0.5-1.5,3.9-1.5,3.9s0,0.7-0.3,1.1
	C34.1,46,33.3,46,33.3,46h-2.5c0,0-5.5,0.3-10.4-4.7c-5.3-5.5-10-16.5-10-16.5s-0.3-0.7,0-1.1c0.3-0.4,1.2-0.4,1.2-0.4l6,0
	c0,0,0.6,0.1,1,0.4c0.3,0.2,0.5,0.7,0.5,0.7s1,2.5,2.3,4.7c2.5,4.3,3.7,5.3,4.5,4.8c1.2-0.7,0.9-6.1,0.9-6.1s0-2-0.6-2.9
	c-0.5-0.7-1.4-0.9-1.9-0.9c-0.3,0,0.2-0.8,0.9-1.2c1.1-0.5,3-0.6,5.2-0.5c1.8,0,2.3,0.1,2.9,0.3c2.1,0.5,1.4,2.4,1.4,7.1
	c0,1.5-0.3,3.6,0.8,4.3c0.5,0.3,1.6,0,4.4-4.7c1.3-2.3,2.3-4.9,2.3-4.9s0.2-0.5,0.6-0.7c0.3-0.2,0.8-0.1,0.8-0.1l6.3,0
	c0,0,1.9-0.2,2.2,0.6c0.3,0.9-0.7,3-3.3,6.4c-4.2,5.6-4.7,5.1-1.2,8.4c3.4,3.1,4.1,4.6,4.2,4.8C53.3,45.9,50.3,46,50.3,46z"/>
</svg>
