<?xml version="1.0" encoding="utf-8"?>
<!-- Generator: Adobe Illustrator 19.2.0, SVG Export Plug-In . SVG Version: 6.00 Build 0)  -->
<svg version="1.1" id="Слой_1" xmlns="http://www.w3.org/2000/svg" xmlns:xlink="http://www.w3.org/1999/xlink" x="0px" y="0px"
	 viewBox="0 0 64 64" style="enable-background:new 0 0 64 64;" xml:space="preserve">
<style type="text/css">
	.st0{fill:#CE5F7F;}
	.st1{fill:#231F20;}
	.st2{fill:#ED1C24;}
	.st3{fill:#CCCCCC;}
	.st4{fill:#CCCCCC;}
</style>
<g>
	<g>
		<g>
			<g>
				<path class="st3" d="M34.1,0.1c-19.3-1.2-35.2,14.7-34,34C1.1,50,14,62.9,29.9,63.9c19.3,1.2,35.2-14.7,34-34
					C62.9,14,50,1.1,34.1,0.1z M40.3,32L35,32l0,19.2h-7.2V32H23v-6.6l4.8,0l0-3.9c0-5.4,1.5-8.7,7.8-8.7h5.3v6.6h-3.3
					c-2.5,0-2.6,0.9-2.6,2.6l0,3.3h6L40.3,32z"/>
			</g>
		</g>
	</g>
</g>
</svg>
