<?xml version="1.0" encoding="utf-8"?>
<!-- Generator: Adobe Illustrator 19.2.0, SVG Export Plug-In . SVG Version: 6.00 Build 0)  -->
<svg version="1.1" id="Слой_3" xmlns="http://www.w3.org/2000/svg" xmlns:xlink="http://www.w3.org/1999/xlink" x="0px" y="0px"
	 viewBox="0 0 207 245" style="enable-background:new 0 0 207 245;" xml:space="preserve">
<style type="text/css">
	.st0{fill:#CCCCCC;fill-opacity:0.1;}
	.st1{fill:#191919;}
</style>
<path class="st0" d="M207,245H0V103.5C0,46.3,46.3,0,103.5,0h0C160.7,0,207,46.3,207,103.5V245z"/>
<g>
	<path class="st1" d="M107.8,109.3l-13-10.7L103,89v-7.5c-3-4.8-8.6-8-14.7-8c-9.5,0-17.2,7.7-17.2,17.1c0,18,25.9,38.7,31.6,43.1
		l-3.2-14.3L107.8,109.3z"/>
</g>
<g>
	<path class="st1" d="M127.6,73.5c-6.4,0-12.1,3.6-15,8.8c-0.2-0.3-0.6-0.6-0.6-0.9V89l-8,9.5l13.3,10.7l-8.3,10.1l3.2,14.3
		c0.1,0.1,0.3,0.2,0.4,0.3c4.8-3.6,32.1-24.9,32.1-43.4C144.7,81.2,137.1,73.5,127.6,73.5z"/>
</g>
</svg>
