<?xml version="1.0" encoding="utf-8"?>
<!-- Generator: Adobe Illustrator 19.2.0, SVG Export Plug-In . SVG Version: 6.00 Build 0)  -->
<svg version="1.1" id="Режим_изоляции"
	 xmlns="http://www.w3.org/2000/svg" xmlns:xlink="http://www.w3.org/1999/xlink" x="0px" y="0px" viewBox="0 0 487.1 369.8"
	 style="enable-background:new 0 0 487.1 369.8;" xml:space="preserve">
<style type="text/css">
	.st0{fill:#CCCCCC;fill-opacity:0.1;}
	.st1{fill:#191919;}
</style>
<g>
	<polygon class="st0" points="323,275.7 323,274.8 325,273.8 325,272.9 325.6,271.8 327,271.8 327,271.1 328.9,270.1 330,269.3 
		330,268.5 330,266.8 331,266.8 331,267.8 332,267.8 333,268.5 333,269.3 333.8,268.5 334.6,266.7 335.3,267.6 336,268.5 336,269.3 
		336,269.8 337.4,269.8 338,269.8 338,271.1 338.9,272 340.9,271.1 342,272 342,272.8 345.5,272.8 346.4,271.9 347.2,270.9 
		349,269.8 350.9,269.8 352,269.8 352,270.8 351,270.8 351,272 352,272.9 352,273.8 350,274.8 348.2,274.8 346,274.8 346,273.8 
		344.6,273.8 343,275.7 343,276.5 342.1,279.2 341,278.3 341,277.5 339.1,278.3 338.3,279.2 337.4,280.2 336.5,282.9 333.7,283.8 
		332.9,282.8 330,282.8 330,282 330.9,281 330.1,279.2 330.9,278.3 330,276.5 330,275.7 329.2,276.5 327.4,275.7 326.5,274.8 
		325.6,274.8 324.6,274.8 	"/>
	<g>
		<polygon class="st0" points="393.4,5.6 391.7,4.4 391,5.5 391,6.4 389.9,7.2 		"/>
		<polygon class="st0" points="396.1,4.8 397.9,4.8 398.8,4.8 399.8,4.8 401.4,4.8 403.3,3.8 405.1,3.8 406,4.5 407,5.5 409,6.4 
			409,5.5 407.9,3.5 408.9,2.7 407.8,1.8 406.9,1.8 406,0 393.4,5.6 393.4,5.7 		"/>
		<polygon class="st0" points="455,247.8 456.6,247.8 458,246.9 458,245.8 455.6,245.8 453.8,245.8 452.1,245 454,243.2 454,241.5 
			454,239.6 454.8,237.7 456.6,236.8 458.3,236.8 459.2,236.8 461.1,236.8 462.9,237.8 464,237.8 464,236.8 464.6,236.8 463.8,236 
			462,235.1 461,233.3 461,231.4 460,228.9 461,227.9 461,226.1 459.2,225.3 457.5,223.5 458.3,222.6 457.5,221.8 454.7,221.8 
			453.8,221.8 452,222.8 450.3,222.8 447.4,222.8 446.6,223.6 444.7,225.3 444,224.3 442.9,225.3 441,227.9 440,228.9 438,229.9 
			438,231.4 437.4,233.1 436.7,233.8 434.9,233.8 432.9,236.9 453.3,249.5 455,248.8 		"/>
		<polygon class="st0" points="461,260.5 462,259.8 462.9,259.8 463.8,260.3 465.6,260.8 466.5,260.8 468.2,260.3 469.1,259.8 
			470,259.8 453.3,249.5 453.1,249.6 452,248.8 450.3,248.8 448.3,249.6 447,251.3 447,252.8 448.5,252.8 451.1,251.8 453,251.8 
			455.6,253.8 456.6,254.8 458.3,254.8 459.2,256.6 460,259.5 460,261.2 		"/>
		<polygon class="st0" points="460.1,310.8 461.1,314.6 462,315.8 463,315.8 463,317.1 464.6,318.9 465.7,318 467.3,318.9 
			468.2,317.9 469.1,316.8 471.8,316.8 473.7,317.9 475.5,318.9 478.2,319.8 480.1,319.8 481.8,319.8 483.6,318.8 484.5,318.8 
			485.3,318.8 486.3,318.8 487.1,317 		"/>
		<polygon class="st0" points="246,154 246,155 246,155.9 244.4,156.8 245.3,156.8 246.3,156.8 247,157.7 247,158.5 248,157.7 
			248,156.8 249.9,156.8 251,156.8 251,155.9 251.7,155 252.7,154 250.8,153.1 248.1,155 247,153.1 		"/>
		<polygon class="st0" points="250,151.3 251,150.4 251,149.6 249.1,148.8 248.1,149.8 247,149.8 247,150.8 248.1,150.8 249,150.8 
			249,152.1 		"/>
		<polygon class="st0" points="340,35.1 341.9,36 343.7,36.8 344.7,36 343.9,35.1 345,33.3 345,32.4 345,31.4 343.7,29.8 342,29.8 
			340.1,28.8 339,28.8 339,29.8 338,31.4 338,33.3 340,34.1 		"/>
		<polygon class="st0" points="446.6,279.8 446.5,279.8 446.6,279.9 		"/>
		<path class="st0" d="M459,291.7l1-2l0.9-0.9h2v-0.5l-0.9-0.7l-2,1.2h-1.8h-1.7l-0.9-2h-1.8l-0.9-1.1l-1-2l-0.9-0.9l-0.9-0.9
			l-1-1.1h-0.8l-1.8-0.9L446,282l0.5-2.2h-0.9l-1.7-0.7l-1.9-0.8l-1-0.8l-2.6-1.8l-1.7-0.9l-1.7-1.8v-3.6l-1-0.8l-1-1v-1.8l-0.9-2
			H431v-0.7l-1.6-0.9l-2.4-1.8v0.9l-1,0.9l-1.1-0.9l-1.8-0.9l0.9-3.6v-0.9l1-0.9v-1.8l1-1l-1-0.9v-2.5l1-1.9v-2.1h0.7l0.9,1l1.8-1.8
			l1-0.9l0.9-0.8l0.9-1.8l0.8,0.9l1-1.9l-1-2.8h-1.7h-0.9l-1.8-0.8l0.9-2.1l1-1.1h0.9l-0.9-0.7l-2.8-1.7l-3.6-2.5l-1.7-2l-1,0.9H419
			v1.1l-0.7,0.9l-1.6-0.9l-0.7-0.9v-1.8v-1l-2-0.5h-1.7l-1.2,0.5v-2.6v-1.8l2-2.8l-2.6-0.7l-1-1l0.7-1v-2.6l-0.6-1l-0.8-1.8l1-2.1
			h0.4v-2h-0.4l1.7-2.9l1.8,0.9l0.8,1.7l1.9,0.9l1.1,1l2-1.9v-0.9l-1.1-1.8l-1-2.7l-1.9-1.2l1.8-1.1h2.3v-0.4v-0.9v-3.7h1.3l1-0.9
			l1-1.7l1.8-1.8l0.9-1.7v-1v-0.8h0.8l0.9,0.9l0.9,1l1.8-1l1-1.7l0.9-2l1.7-1.1h1l2.1,2.3v-1l0.6-2.3h0.9h1.8l0.9,1l1.8,1h2.7l0.9,1
			h1.8h1l0.6,1.1v-1.8l-1-0.9v-1.4h1.2l4.6,1.1l2.5,1l0.7-1.7v-0.9v-0.6h1v-1.2l-0.6-0.8h1.7h1.8l-0.9-2h0.9l1-1l1.8,1h1.3v-2h2.2
			l-0.7-1.7l0.7-0.8l0.9-0.8l2-0.9l0.9,0.7l0.8,1.5h1.8h3.6h0.9h1v-1.3v-1.8l1.7-1l2.8-0.9l2.7-2.6l0.8-0.9v-1.8l-0.8-1.8l-1.8-1.8
			h-0.9l-0.9,0.9l-1.9,1.1H478h-1.7h-0.9l-2.4-1.1v-0.8l-1.3-2.1h-0.8H470l-2,2l-0.9,1h-1.7l-1.8-1.8l-1.7-2.9v-1.8v-0.7l-1-0.9
			l-1-0.9v-0.9l-2-1.9v-3.6l1-2.7l-1.1-0.9l-1.9-0.9v-2.8l-2,3.7l-2,2.7l-2.8,0.9l-2.7,0.9l-1.8,0.9l-2.7-3.6v-2.7l1.9-0.9l2.6-0.9
			l0.9,0.9l0.9,0.9l0.7-0.9v-1.9v-0.9l1.1-1.8l0.9-1.7l-1-1.9l-1.9-0.8v-1.3h-0.6l-0.9,1h-1.8h-0.8l-1,1l-3.6,2h-1.8l-0.9-2.6
			l-1.8-2.9l-0.9-0.7l0.9-0.7h1.2v-3l-1.1-2.8l-2-2.7l1-1.8l0.9-0.8h1.2v-1.1l-1-1.6v-0.9v-2.7v-0.7h-2v-2l-0.8-1.8l-1-1.1l-0.9-2
			H429v-0.5l-0.7-0.9l-0.8,0.9l-0.8-2.7l-1.8-3.7l-0.8-3.4l-1.1-1.8l-2.9-1.8v-2.7l-0.6-0.9l-1.4-1.9v-1.7l-1.1-2l-1-0.9l-1-0.9
			l-0.9-3.5l-1-0.9l-2-0.9v-0.9l-1.6-0.9l-0.8-0.7l-0.9-4.3H407v-2.3l-1-1.8v0.9l-1-1.8v-1.9l-0.9-0.8l-0.9-1.8l-1-1.5H400v-1.1
			v-0.9h2.3l0.7-0.9v-3.6v-2.6v-1.8h1.1L405,36v-3.7l-1.7-4.4l0.9-1.8l1.7-1.8l1-1.8l-0.8-2.6v-2.7l-0.9-1.8l-1.8-0.9l0.8-1.6h-0.9
			l-1-1h-1l-0.9,2h-0.8l-0.9-1.9l-1-1.1h-0.8L396,9.9V7.8h-0.9h-1.9l-0.8,1h-1h-0.8L389.8,7l-0.9-0.7l1.2-0.9V4.8h-1.3h-3.6
			l-3.5,1.6l-1.8,0.4h-2.6h-1.9l0.8,1.4v2.5l-0.9,1l1,0.9l1,1.2l0.8,2.1h1.8l0.9,0.6l-1.8,1.7l-0.9,2.6h0.9l1,1.1l-1.8,1.9h-1.8
			l-1.8-1.9l0.9-1.1l-0.9-1.9l-0.9-0.9l-0.7,0.9l-0.7,1.8v1v1.7v0.9l-1.2,1.5h-2.7H366v1.3l-1,3.4v0.9l-1,1.8v0.9v1l-1.3-1l-0.9-0.9
			L360,36v-1.9v-1.8l0.8-0.9l-0.8-0.9v-1.7h-1h-1l-0.8-0.8l-1,2.8h0.7v2h-1v-1h-1v0.6v0.9l2.3,2.5h-1.8l-0.4-0.7v-1l-1.2,1l-1.1,1.7
			h-0.9l-1.8,3.8l-1,0.9l-0.9,0.9l0.9,0.9l1,0.9l-1.8,1.8l-1,0.8h-0.7l1.6,1.9v1.7v1.8v1l-0.9,0.8l-1.6,1l-2.7,0.9l-0.8,0.9
			l-2.9-1.9l-1.7-1h-1.8l-1.6-0.7v-1v-1.8v-0.7l2-1v-0.9h2.3l0.8-1l-1.7-0.9l-0.9-1.1l-0.9-1.1h-1.8l-0.9-1H332h-2.8H327v1h-1.4
			l1.9,1.1l0.7,1l0.8,1v1v1.8l1,0.7v0.4h1l-1,2.3v0.8v2.9h2h1.7l1.3,0.8v0.9l1,1v0.8l0.7,1l-1,0.9l-1.1,1.8l1.9,1.8l0.9,0.9
			l-1.8,0.9l-1-0.8l-1.7,1H331l1-2h0.9l-1.9-1.9l-0.8,0.9h-1.8l-2.3-0.9v0.9l-0.7,1.8l-0.8,2.7l-1.6,0.8l-0.9,0.9v1.8l-0.9,1.8
			l-0.9,1l-0.8,1l0.8,0.8l2.9,1.8l1.9,0.9v0.9l1.4,1.8l0.6,2.7v0.7l-0.5-0.5h-0.9l-0.9,0.8l-0.7-0.9l-2,0.8l-2.6-0.8l-1.8-0.9H316
			v-1h-1.2H312l-3-0.9v1.7l-1,1v0.9l2.1,1l1,0.9l2.9,0.9v-0.4h0.8l1.8,1.4l0.9,3.5l-1.8,0.9l-0.9,0.9l-1.8-0.8h-1.8h-0.8l-1.9-1.9
			l-0.9-1l-0.9-0.9l-0.9,1.8l-1-0.9l-2.8-0.9v-2.1h-1v-0.5v-0.9l-1-1v-0.9l-0.6-1.8l-0.4-0.9V82v-0.9v-1.8v-1v-0.9l-1.1-0.7l-1-0.9
			H294h-0.9h-0.8l-1-1h0.7v-1h-0.7H290v-1h-1.4l-0.8-0.9l-1.1-1.6l1.1-1.5h-1.1l-0.8-1h0.8h1.1h0.8l1.8,1.5l0.8,0.5h0.7v-0.4
			l1.9,0.7l1.9,0.7h1h0.8l0.9,1h1.9h1.8l2.6,1l0.9-0.9l1.1-0.9L308,72v0.8h1.4h1.7h1.8l1.8-2h0.9l1.7-0.7l0.7-0.7v-0.9l1.4-0.7h0.6
			v-1.1v-0.9h1.1l0.8-3.6l-0.9-1.9v-1.5h-1v-2.1l-0.9,0.9l-1.1-0.9v-1.9h-1.3H316v-0.9l-2.9-0.8l-1.9,0.8l-0.8-0.8l-0.7-1l-1.6-0.9
			v0.9l-1.1-0.9l-2.1-1.5h-2.6l-2.8-1.9l-2.5-1l-2,0.9h-6.3h-0.8l-1.1-1l-1.8,1v-1l-0.8-0.9l-0.9,0.7l-1-1.9h-0.9l-1-2h-0.7l-0.9,2
			h-0.9l-0.9-2H276v3h-1.8l-0.9-1h-1.4l0.6-2.3l-0.2,0.3h-1.8h-0.9l0.5-1.2v-1.8l-0.5-0.9h0.9L271,38V37v-1.2h-1v-1h-1.4l-1.6,1.3
			v-2.3h-2l-1-0.7l-2,2.1v0.9l-1,0.9l-1-1.8v-0.9l1-0.9v-0.9v-1.7h-0.5l-1.5,1.7v0.9l-2,0.9V37V38l-1-0.9v-0.9l-1-0.9v-0.9v-0.9
			v-0.5h-1v0.5v0.9l-0.9,1.8l-1.1,1.8l-1.1,1.8v-0.9V38v-1.8l2-0.9v-0.9l1-1.8l1-0.9l-0.9-0.9l-2.8,1.8l-0.7-0.9l-0.6,0.9v0.9
			l1.5,0.9l-2.8,0.9l-0.9-0.9l-0.9,0.9v1.6h-1.2l0.9,1l-1.8,1.8l-1-1.8l-0.9,0.9v0.9v0.9l-0.9,1l-0.9-0.8H240v0.8l-0.6-0.8h-0.9
			l-0.5,0.8v1.2h-1.3l-0.7,0.6v1.8l1,0.9V48l-1.1-1.1l-1-1.1H234l-0.9,2L232,46l-1,1v1.8l1,1.8v0.9l-1-0.9l-1-1.8v1.8l-0.5,1.8
			l-0.5-0.9v-1.7l-1,0.9v3.1h-1.3h-1l-0.9,0.6l0.9,0.9l-0.8,0.9L224,57v0.9l0.9,0.9l-1,1h-3v-1l-1,1v0.9v1.8v0.9l-1,1.8v-1.8v-1.7
			v-1l-0.5,1.2h-0.9h-0.9l-0.9,1h0.9l1.3,0.5v1l-1.1-1l-1,1.2l-1-0.7H214v1.4l-0.9,1l2.9-1l1.1,1v0.7h-2.2h-0.9l-0.9,1.1v0.9h2v2
			h-1.1H213l-0.9,0.8l-0.9,0.9l-2.1-0.9l-1.1,0.9v0.9v0.4h-0.4l-0.9,1.1l0.9,1l-0.9,0.9h-1.8l0.9,1l1.1,1l1.2-0.9v1.9h-2.3H205v0.8
			l0.8,1.1l-1,1.1h-0.9l-0.9,0.8l-0.9,0.8l0.9,0.9V86l-1,0.9l-1-0.9v-0.8l-1,1.7v0.8h1v1.9l-0.8,1.1H199v1.6l-0.6,1.4H198v1.4v0.9
			l-0.6,0.9l-1.4-0.9v-0.9l-1.1-1l-1,0.8l-1,0.8h-1h-1v2.1l-0.9,1l-0.8,1.9h-0.9H187v0.8v1.7l-0.7-0.9l-0.8,0.9l-0.9,1l-0.9-1
			l-0.8,0.8l-1,0.7H181v2.2l-0.8-1.2h-0.9l0.8,1.2v0.8h-0.8l-0.9-0.9l-0.9,0.9h-0.9h-1H175v1l0.6,2h-0.9h-1l-1.8-1h-0.8l-1,0.9
			l0.9,0.9v1.3h-0.9h-1.8l-1.3,1.5v-1.5h-0.5l-0.9,0.9l-0.9-0.9h-1H163v0.6v0.9l0.7,0.5h1.3v1h-1.3l-0.9,1H161v1.1l1,1v0.9l-2-0.9
			v0.9v0.9l0.9,2.2h2.1v1h-1.1l-1.9-1.4v1v0.9l0.9,1.8l1,0.9l-1,0.9L160,127l-1,0.9v0.9l1.9,1h-0.9H159v0.8l1,1.1l0.9,1.1h1.9
			l1.8-1.1l-1.8,1.7l-0.9,0.8l-1,0.8l1.9,1.7h-0.9h-1l-0.9,0.9l-0.9-0.9h-0.9l-1.3,2v1l-0.7,1.8l0.9,1l1.9-2.7h1.8v0.8v2.2h-1v1.5
			l-1,0.9v-0.9l-1,0.9v0.9v1.8v0.9l1.9,1.8l2.8,0.9l-1.9,1.8l2.1,1l1-1v1.5h2.5h1.8l1.7-0.5v0.9l1.8-0.9l1-1l0.9-1.8l0.8-0.9
			l2.5-0.9v-0.9l1.3-1h1.7v1l1,0.9l2-0.9V147l2-1.8v-1.8l-1.1-0.8l1.8-1.9l0.9-0.8l0.9-1h0.5v1.8l-0.5,1.2H187v1h0.5l2.6,2l-1.7,2
			h-0.1H188v2v0.9v1.8v0.9v0.9v1v0.5h1v2.2l1-0.9l1,0.9l-1,1.8v0.9v0.9v0.9v1.9v0.9l1,0.9l-1,0.9v1.8l1.1,0.9h0.9v2.8l2,0.9v0.9v0.5
			h-1v1.4l-1,0.9v0.9v0.9l1,0.9v1l1,0.9v0.9v1.8l-1,0.9l0.9,0.9l0.9-0.9l0.9,0.9l2.7-1l0.9,0.7h0.9h0.8v-0.5v-1.8v-1.8l1-0.8h0.9
			h0.9l0.9-1h-0.9l0.9-0.9l1.6-0.9l1.6,0.9v0.9h1.3h1.8h0.8V177V176l2-2.7v-1.8l1-0.9l1-1v-0.8h-1.2l0.9-1.9l1.1-0.9l-0.8-0.9v-0.9
			v-0.9l1-1v-0.9l1-1.8v-0.9v-1l-1.1-1.8l1.7-0.9l-2.8-0.9l0.9-1.2l1.8,0.7h0.9l1.6-1.4v-0.9v-0.7h1.1h0.9l0.9,0.8l0.9-1.9l0.9-0.9
			l2-0.9L226,147v-0.9l0.7-1.3h0.9l2.1-2.5l-0.7-0.8v-1.8l-2,0.9v-0.9v-1l-1.1-0.9L225,137v-0.9v-0.9l-1.9,0.9l-1-0.9l-1-1v-1.8
			l-1-0.9v-0.9l-0.6-0.8h0.9l0.7-1V127V126v-2.2h1.1l-1-0.6l0.9-0.8v-1.8l1-0.9v-1.9h-3v-1.7l1.1-0.9l1.9,0.7l1-1.1h0.9h0.9h1
			l1.8-1.2l-0.9-1l1.8-1.9l-0.9-0.9h1.8l0.9-1.8l0.9,0.9l1.8-0.9l-0.9-1.1l0.9-1.1h0.9l2.1-0.6v-1.8v-0.9v-0.9l0.7-1.8h0.9l0.9-1.9
			l0.7-0.9l-1.1-0.9v-0.9v-1.8v-1.8l1-0.9v-0.9v-0.9l1.3-1h1.7V86v-1.8v-0.5h1l0.9,0.7l1.8-1.7l0.9,1.1h0.9h0.9l0.7,0.7l0.7-1.1v0.4
			h1.2h0.9h1.9v1.4l1,0.8V87v0.9v1.8v0.9l1,0.9v1.3h-1.2H255h-1v0.6l-2,2.8V97l-0.8,1.8l-0.7,1l-1.5,1.8v0.9v0.9l-2,1l-1,0.9l-1,0.9
			v0.9v1.8l-1.8,0.8l-1-0.9H241v1.8l-2,1.9v1.8v0.9l1,0.9v1.8l-1,1v0.9l2,0.9v0.9v1.9v2.6v1.8l-2,0.9v1.8v0.9l2.3,2.2h2.7l0.9,1h1.8
			h0.9l1.3,2.2v1.7l0.7,1.1l0.7,1h2.8h0.9l0.9-1.9l0.9-0.9l0.9,1.8l0.9-1l0.9-0.9l1.9-1l2.7-1.1h0.9h0.9v-0.6v-1l0.9-0.9l0.9,1.8
			l0.9-1l1.8-0.9l0.9-1.6l0.9,1.1h1.9h0.8l0.9-1.1l1-2v2.1h1.8l1.8-1h0.3v0.6v1.8v0.6h1.4l0.9,1.2l1.9,0.7l0.8-1h1.8h1.1l0.8,1h1.4
			v2h-1.4h-1.9H285h-3v1h-1v-1l-1,0.9v0.9v0.9v1.3h-0.3l-0.8-2l-0.8,0.7v0.9v0.9v1.5l0-0.1H277h-3.7h-0.9l-0.9-1h-0.9l-1.7,1.4v-1.4
			h-2h-0.8h-0.9h-1l-0.9,1h-0.9h-1.8h-1H259h-1v1.2v0.8h-0.8h-0.9h-0.9l-1.4,1.1v0.9v0.9v1.1h2v0.6v0.4h-1v1.3v2.8l2.2,1.8h0.8v-0.9
			l1-1.1h0.9l1.1,1l-0.9,1.9v1.8v0.7l-1,0.2v0.4l0,0h0v0.5v0.9v0.9v1.8v0.9v1.8l-1,1.1l-0.9,1.1h-0.9l-2.1-2l-1.1-1.1v-1.9l-1.4-2.1
			h-0.9l-0.7-0.6v-1.4h-1.9l-1.8,1l-1,1h-0.9l-0.4,2.1v1.9l-1.1,1.8l-1.1,1.7l-1,5.5l2.8-0.9h0.1l-2.8,1h0.1v2.6v0.9v0.9l1,2.8v2.9
			h2v0.7l0.4,1.3h0.9l1,1h-1.7h-1.1h-0.2l-0.3-0.9l-0.7-1.2l-1.4,0.1H240v1h0.9l-0.9,1.9l-0.9,1.1H237v-1v-0.9V188l-2,1.8v0.9
			l-1.6,1.3l1.6,0.6v0.9l-1.4,1.4H233v0.5v0.9v0.6h-2.1H230v-1h-0.9l-2.9,1.1l-1.2-0.7v-0.9v-0.9v-1v-0.9v-0.8h-3.3l-0.9,1h-0.9
			l-1.8-0.9l-0.9,0.9H216v1h-0.6l-0.9,0.8l-0.9-1.2l-0.9,0.9l-0.9,0.8l-0.9,0.7h-0.9l-0.9,1h-1v1h-0.8h-1.8h-0.9l-1.8,1l-0.9,2
			l-0.8,0.9l1,0.9v1l-0.6,0.3h-1.4l-1-1.5l-0.1,1.2v-2.7h-3v-1.9v-2.1h-1.5H193v-0.6v-0.9v-0.5h-1.3l-0.9,1h-1h-0.9l-1.8,0.6l-2,0.8
			l-1.1-1v0.6h-0.5h-1.8h-0.9l-1.9-1h1.1h1v-1.4v-0.6h-1.1h-1l-0.9,0.9l-0.9-1.9h-0.9H175v-1h-0.6H173v-1.1l1.2-0.9l-0.9-0.9
			l-0.9-1.1l-0.2-0.3l0.1-0.1l-0.1-0.1l-0.1,0.1l-0.6-0.7h0.4l0.3,0.6l0.6-0.6h0.9l-0.9-0.7l-1-0.7l1-0.6h0.9l-0.7-1.2v-0.8h1v-1v-1
			h0.6l0.9-1h0.5v-0.8l2-0.9l1-1.8l-0.9-0.8l1-0.8h0.8v1h1l1-1.3v-0.9v-0.9l-1-0.9h-0.9H179v-1h-1V170l1.2-1.2h0.9l-1.1-0.6v-1.4
			h-0.7H177v1h-1.5h-0.9l-0.8,1.1l1.1,1.1v0.9l-1-0.9l-1,0.9V170v-1.2h-1.2L171,170v0.8h-1v0.1l-0.9-1.1H168v-1h-1v1.2l-1,0.9v0.9
			v1.8v0.9v0.9v0.9v0.9v0.9l-0.7,0.8l1.1,0.8h0.6v1.1l1,0.9v1v0.9v1.8v0.4v0.5v0.5v0.4v0.8v0.9l1,0.9v0.9l-2,1.1h-1v1h1v0.6v1
			l1.9,0.9l-0.8,0.9l0.7,0.6H167h-2v1.2v1.8v0.9l-1,0.9v0.9l-1-1.7v-0.9v-1.1h-0.9l0.6-0.9l-2-1.1h-1.8H157h-1v1.2l-1,0.9v0.9h1v1
			l0.9,0.9l-0.1,0.1l-0.8-0.8l-1,0.9h-1v-4h-0.7h-0.9l-0.7,1.2l-1.7,1v-0.9v-1l-1.3,0.7h-0.9h-0.9l-1.9,1l-1,1.1v0.9v0.9v0.9v0.9
			v1.8l-1.7,1.4h-0.9H140v-1.4l1.4-0.6h-0.9l0.8-1.1l0.8-1.1v-0.9l-0.6-0.9H140v0l-1,1.8v1.8l-1,1v0.4h-1v1.4l-1.1,0.6H134v2h1v1
			l-2,0.9v-1.9h-1v1v0.9v2.1h1.2l1,0.8l2,0.5l-2-0.3h-0.9l-1.3,0.5v0.5h-1.5h-0.9H129v-0.5l-1.2-0.5H127v-1h-1l-1,0.8l-1-1.2v1
			l-2,0.9v-0.5h-1.5h-0.9h-0.9h-0.9h-0.9L116,217v0.9v0.9l-1,0.9v0.9v1.9v1.3h-0.9h-0.9h-0.9h-0.9l-1.8,1l-1.8,1h-1.8H104v1h1l1.8,1
			l0.9,1H107v1l-2-1h-1.8H101v-1h-1.6l-1.7-0.8L96,226v1l-1.9-1l0.9-0.9l-1-0.9v-0.9l0.9-0.6H94h-0.9l-0.9-1H91v0.7l-1,0.9v1.8v0.9
			l1,1.8l-1,0.9v1v0.8l1,1v1.2h-1.6l-1-1h-0.9h-0.9l0.9-1h-1.8H84l-1-1v1h-2v-1v-2h-0.7H79V227l0.1-0.1l-1.4-0.9l-0.7,1v0.8h-2v-1
			h-2h-1l-0.9-1l-1,1h-0.8h-0.9H68v1h0.5h0.9H70v1v1h-1v1h-0.5h-0.9l-0.9,1h0.9l0.7,0.7l0.7,1.7v-0.9l2,0.9v-0.5h1v0.5l1.9,1.5H75v1
			h1v1.1v0.9h1.6h1.8l-1,1h1l0.9,1l-0.9,2h0.9l1,1H82v1.3l-2,1.8v0.9l1.3,1.9H82v1.7l1,0.9v0.9l2,0.9l1-0.9v0.9v0.9l-1.1,0.6h0.9
			L85,257v1.8v0.9l-1,0.9v1.2h1v0.7v0.9l1,0.9v0.9v1.8v0.9l-1-0.9v-1v-0.9l-1-0.9v-0.9l-1-0.9v-0.9l-1,0.9v2.7v0.9l-1,1v1.8h-0.7
			l1.8,1l-0.8,1H79v0.8v0.9l-1,0.9v0.5v2h-1.3L76,277v0.9l-2,1.9l-1.9,1.8l0.3,0.2H72l-1-1h-1.7l-1.8-1l-1-1h-0.9h-1h-1.8l-0.9-1.1
			l-0.9-1.9h-1.8l-0.9-1h-0.9h-1.8h-1l-0.9-1h-1h-0.9l-0.9-1l-1-1h-0.9h-1.8h-1l-1.4-1.3v-0.7h-2.2l-0.9-1H41h-1.8l-1-0.9l-0.9-1
			l-1.8,0.9l-0.8-1.9l-0.7-0.9v-0.9v-0.9l-2.2,0.5h-0.9l-0.9-0.5v0.5h-0.9h-0.9h-0.9l0.9,1.1l-1.1,1l-1.1,1V266l-0.6-1.2h-0.9h-0.9
			l-0.9-0.8l-0.9,1.9l-0.9-0.9L20,266l-0.9,0.9l0.9,0.9v0.9l1-0.9v0.9l-1,1.1h-1v1h1v-1h2v0.7l-1,1v0.9l-1,0.5h1v1.4l-1,0.9l-1-0.9
			l-1,0.9v1.7v0.8v1v0.9l-1,0.9v0.9v1.9l-0.5,0.9L16,285v1.8l-1.1,0.9l-0.9,0.9v1.8l-1.1,0.9l-1.1,1.8L11,294l-1,1v0.9l-0.8,1
			l-1,1.9H7.4H5.5L5,299.4v0.9v0.9v0.9l-1,0.9l-1,0.9v0.9v0.9h1.6l0.9,1H6v1.8v0.9l-0.5,0.9L5,311.2v1l-1,0.9l0.7,1L4,315.8v1H2.8
			L2,317.6v1l-0.9,1.8L0,321.3v0.5h1h0.9l1.1-0.7l1,1.1v0.6h0.6h0.9l0.9,1.1l1.8,1.1l1,0.9l0.8-0.9v0.9h1l2.8-1h0.7l0.9,1.1l0.8,0.9
			l0.8,1v0.9l2,0.9l1,1v0.9l-1,1.4H20h0.9l-0.9,1.3v0.7h-1.9l0.9,1.1v1.9l1,1h0.9l0.9,0.8l1.1,1.8l1.1-0.9v-0.9l1.4-0.8h1.8l0.9-1
			h0.9l1.8,1h0.9l0.9-2h1.8l1.8,1l0.9,1h1.9l0.9,2h1.8h2.8h0.9l1.8,0.9l0.9-0.9h1.8l1,1h1v1h0.8l1.2-1.4v-0.9v-0.9l2-0.9v-0.9h1.4
			l0.9-1h1.8H61l1.8,1l1.2-0.9l2-0.9v-1.8l0.5-1.3h1l0.6-0.5v-0.9l2.1-0.6H71h1.8l1.9-2l-0.8-1.1v-0.9l-1-0.9v-1v-0.9v-1.8v-1.8
			l0.9-0.9l0.8-0.9l1.8-1l1.8-1.9h0.9l1-0.8l1.8-1.8l0.9-0.6l1.8-0.7H85v-1h1v-1.2l0.6-0.8h0.9h1.7h1.9h1.8h1h0.9h0.9l1.8-1h1l0.9-1
			h1.8h0.9l0.9-1h0.9l1-0.8l1-0.8v-0.9l1-0.9v-0.9v-1.9l-0.4-0.3l0,0l-0.4-0.3l-0.3-0.5l-0.2-0.5l0.9-0.9l-0.8-0.9l1-1.8v-0.9
			l0.7-0.6h0.9l0.9-1h0.9h0.9h0.9l0.9-1l0.9-1h1l0.9,1l0.9,1h0.9h2.3v1.6l0.5-0.6h0.9l0.9-1h0.7v0.6v1.4h1.1h0.9v0.4v0.9l0.9-0.9
			l1,0.9l1,0.9v0.9l0.7,0.8h0.9h0.9h1h0.9h1l0.7-0.8v-0.9v-1.3h1.1h0.9h1.1v-1h0.8h1.2v1.3l1.7-1.8l-1,0.9l0.5-0.7l1-0.6l0.9-1.2
			h0.9h0.9l2-0.7l1.1-0.7v-0.9l0.7-0.8l0.8-0.8h1.8h0.9l1.8,1.8l1-1l2.9,1.8v-0.9l0.6-0.7h0.9h0.9l-0.5,0.7v0.9l0.7,0.9l-1,0.9
			l1.7,1.8l0.9,3.7l0.9,3.6l0.9,1l1.8,4.6h0.9l1.8,1.8l0.9,1.8l1,0.8l0.9,1l2.7,2.9l5.5,5.7h1l0.9,1h1.8l0.9,2l0.9-0.8l2.7,2.8l1,1
			l0.9,1h0.9l1.8,2h1l0.7,0.6v1.8v1v0.8l2,0.8h0.9h0.9l2.1,1l1.1,0.9v1l0.7,0.9l0.6,2.7l0.7,2.8v2.7l-0.6,1h-0.9H200v0.8v0.9v0.9
			v0.9l-1,1l-1,0.9v1l0.7,0.7h0.9h0.9h0.9l1-1h0.7v-0.7l2-0.9v-1v-1.7l1-0.9l0.9-0.9l0.9-0.9h0.9h0.9h1.4v-1V345V344v-1.8v-0.9v-0.9
			l-1.2-0.9l-1.9,0.9l-1-1.5l-0.3-2.5l0.3-1.6h1.1V334l0.7-1.2h-0.9l0.9-0.6l0.9-0.4h1h0.4v0.4l2.3,0.6h0.9h0.9h0.9h1v1.2v1l1,0.9
			v0.9l0.8,1.1h0.8h1l1.4-1.1V335v-1.8v-1l-2.2-0.9l-0.9-1.8l-1-0.8l-1.8-0.8h-1.8l-0.9-0.9l-0.9-1l-2.8-0.9l-0.9-1.1l-0.9-1.1h-0.9
			h-1.8l-0.9-0.5l-1.8-0.5h-1l1-1h0.9l0.8-1.3v-1.8l-2.6-0.8h-0.9h-2.7h-1.8l-1.8-0.9l-1-1.8l-0.9-1l-1.8-1.8l-0.9-1.7l-1.6-1.8
			v-1.8l0.8-0.9l-0.8-1.8l-0.9-1.9v-0.9l-1-0.9v-1.6h-1.1l-1.8-1l-1.8-1h-0.9L179,295v-1l-1-0.8v-1l-0.9-1.8l0.9-0.9v-0.9v-0.9
			l0.9-0.9l1.1-0.9v-1.1h-1.4L178,284v-1.2h-1.2l0.9-1h1.3v-1h1.4h0.9h0.9h0.9l0.9-1h0.9v-1h0.9h1.1v0.7l1,0.9v-1.6h0.6l0.4-0.5
			l0.5,0.4l0.4-0.9v0.9v0.9v0.9l-0.4,1.3h-0.9l-0.8,0.7l1.1,0.7v0.9v1.8l1,0.9v0.9l0.7,0.9l0.8-1.8l0.7-0.9l0.7-1.8v-1.4h1.2
			l0.9,1.1l0.9,1l0.9,1l1,1.8l-0.9,1.8v1v2.3h2v1h0.6l0.9,0.4l1,0.6h-2.8l0.9,1l0.9,1l1,2h0.9l1.7,1.7v0.9l1.9,1.1l1.9-0.7h0.9
			l1.8,1.7l1.8,1.6l0.9,1.7h1.8l0.9,1.9l1.8,1.1h0.9l0.9,2h0.9l0.9,1h1.8h0.9l0.7,0.4v1l1.1,0.6h0.9v2h2v1h0.7h1.3v-0.2l1,1v0.9v1.3
			h-1v0.5v0.9v0.9v0.9v0.9v1.8l-1,0.9v0.9v0.9l0.9,0.9l-0.9,0.9v0.5h1v1h-1v2h1.6l0.9,1h1.5v0.9l1.3,2.1h-0.1l0.9,1.4l0.9,0.6h2.1
			v1.4v1.8l0.8,0.8l0.7-1h1h0.9h0.6v1.2v0.8h-1.5h-1l-0.6,0.9l1.1,0.9v0.9v1.2h0.5l1.8,0.9l0.9-0.9h0.9h0.8v0.6l1.9-0.6h0.9h1h1.8
			l0.7,0.7l0.8,0.7v-0.4h2.2l0.9,0.6l0.9,0.7l1.8,0.8l-0.9,0.9h-1l-1,1l-0.9-0.7v-1l-1-0.9l-2,0.9v-1.3h-0.5h-1h-0.8h-1l-0.9,1h-0.9
			H246h-0.9h-0.9l-1.2,1.3v0.9l1.2,1.9h0.9l0.9,0.8l0.9,1v0.9v1.8l-0.9,0.9l0.9,0.9v0.9v0.9l0.9,1.9h0.9h1l0.9-0.9l-0.7-0.9V364
			l0.9-0.9l1.1,0.9v0.9v0.9v0.9l0.4,1h1l0.9,2h0.8v-2.2v-0.9v-0.9l1-0.9v1.9h1v2h0.9h4.1v-1.2l-2-0.9v-0.9l-1-0.9v-2.1h-1.1l-1-1.6
			l-0.9-0.8v-1.6h0.9l1.1,0.7v0.9l0.8,1.4h1l1.6-1.2l1.6-1.2v-1.9l-1.4,1.2h-1l-0.6-1.2v-0.9l0.7-1l1.7-1.9h0.9l0.8,1.9l1.8,1v-0.9
			v-0.9v-1.8v-2.3h-0.8l-1.8-0.5l-0.9-1.5h-0.9l-1.8-1l-1.8-1H256l-0.9-0.9l0.9-0.9l0.9-0.9v-1.2h-1l-0.9-1.5l0.9-0.5h0.9h1.8
			l1.2,0.5v0.9v0.6h0.6l1-2h-1l-2.7-2.5l-1-1.6l-1.8-0.9l-1-0.9v-1.8v-1v-0.9l-0.7-0.9l1-0.9l1.8-0.8h1v1.6l0.9,0.9l0.8,1.8l0.9,1.8
			l1.7,0.9l1.6,0.9v-0.9l-1.4-0.9l-0.6-1v-0.8v-1l0.8,1l0.7,0.8l0.9,1l2.7,0.9v-1.1h-0.8l-0.9-1.9l-0.9-1.1h0.9h0.7v2h2l1.8-0.9
			l0.9-1.1h-0.9l-1.9-0.7l-1.9-0.7l-1-0.9l-1.1-0.9v-0.8h1.3h2.7h1v-1v-0.9l0.9-0.9l0.9,0.9l0.9,0.9h1.9l0.9-1l-0.9-1h0.9h1.7l1.8,1
			h2.8l0.9,1h0.6l0,0.1l1.1,0.9h1.8h0.9l0.8-1v0.9v1h-0.8l-1.8,1.8l0.9,0.8l0.9-0.9l2.8-1l1-0.9l2-0.9v-0.9l0.7-0.8l1.7-1l0.9-0.8
			l0.9-0.9l1.8-0.6h0.9h1.9h1.8h0.9l0.5-1.4v-1.6h-0.5l-1.8-1h-0.9l-1.9-2H296V316V315l-0.8-1.2H295v-0.5v-1.5h-1l-1-1.2v-0.8h-1.8
			l-1.2,0.8v-1.8v-0.9l1.2-1.1h0.8V306l0.9-0.9l-0.9-0.9v-1.4h1v-2.2v-1.8h1.9h1.8l1-0.9l-0.8-2.4v-0.3v-0.1l0.9-1.8l-0.9-1v-1.8v-1
			l0.9-0.8l1-0.9h-0.9H297v-0.9l1-1.8v-0.9l1-0.9l1,0.9v1.6h0.7l1.3-0.7v-1.3h0.5l0.5-1.5v-3.6l-0.5,1.4l-1-1.7l-0.5-0.2v-0.7v-0.9
			l-1-0.9v-0.9l1.3-0.9h0.7v0.9l1.1-0.9h1.7l0.9-1h0.9h1.3v-1.7l-1.3-1.3h-0.9l-1.8-0.5v-0.5h0.9l0.1-1.1l-0.7-0.7l0.7,0.6v1l0.9-1
			l0.9,1.2l0.8,1h0.4v-3.1l1.4-1.9h0.9l0.8,1l1.8-1l1.8-1.9h1.2v1h1v-1.6v-0.9v-1.8l0.5,1.8l0.5,0.9v0.9l1.4,1.7H318v1v0.9v0.9
			l1.6,1l1.6,0.8l2.8-1.7l1.6-0.8h0.9l1-1l0.9,2.7l0.8-1l0.8-1.8v-1h1l1,0.9l0.9-0.9h0.9h2.3v1h1v-1h1.3l0.8-2.7l1.9-0.9v1.6h1
			l2.6-2.6l1.8-0.8l0.7-0.8l1-0.8h0.9l1.9,0.8l0.9-1l-0.9-0.9l1.7-0.9l0.9-1.9l1-1.1h0.9l0.6-0.7v-0.9l1.3,0.5h0.8l-0.1-0.5l1-0.5
			h0.9l1-1.2v1.2h0.7l1.9-1.5l0.9-0.5h1.6v1.5v1l-1.6,0.9l-1.9,1l-0.8,0.9l0.8,0.9l1.1,0.9l-1.9,0.9l-1.8-0.9H359l-1,1H357v0.8
			l1.1,1.2h2.7l1.2,0.7v0.9l2.4,0.5h-0.9l-0.9,1.1l-0.7-0.7v1.8l0.7,0.8l-0.9,1l-1-1l-0.8-0.8l-1,0.8v1.9l-1,0.9l1,0.9v2.2h-1.7
			L356,272v0.9l1.9,0.9l2,0.9h0.8h1.8l1.5,0.9v1.1h1.2l0.9-0.9l0.9,0.9h1.9v0.7l1.8,1.3h1.8l0.9,0.5l0.9,0.5h1.8l2.6,3.7l1-1.7h0.1
			l-0.9,2h-0.1l2.8,1h0.9h0.9l0.9,1h0.9l1-1h0.9l0.9,1h2.1v2h0.6h1.8l0.6,0.5v0.9l1.2,1.7l1,0.9l1.9,1.8l0.9,0.9v1.3h-1.1l-0.9,1.5
			v0.9v0.6h1v-1h0.7h1h3.5h1h0.9l0.9-0.9l1.8,0.9h1.2v0.4v0.6h0.7h1.8h0.1l2.3-1.3l-2.4,1.6l2.6,0.9v1l0.8,0.9l-0.8,1.8v0.9l0.9,2.1
			l1,1.2h1h0.9h0.9h0.9h0.9l0.8-1.2l0.8,0.7v0.5h2.1h0.9l2,1.3v0.7l2.5,1.9l1.7,1.1l0.9,1h2.7h1.9h0.8l1.8-1h1.6v-0.2l1-1.8v-0.9
			v-0.7l2.1-0.9l1.9-1.8v-0.9l0.8-1.8l0.7-1.8h1.9l0.8-2h1l1.8,1.9l1.1,1v2.1h-1.1l1.2,0.8l1,1.7v0.9l-2.1,0.6H451l1.9,0.9l1.7,1.1
			l1-0.9h0.9l3.6,0.9l-0.9-0.9l0.9-0.7l-1.9-0.9l-0.8-1.8l0.7-0.9v-0.9v-0.7h1v1.6l1-1.8v-1.8v-0.9l-0.9-1.2l-0.9-2h0.8v-0.5v-1.8
			v-1l-1-0.9v-0.9L459,291.7z M282,118.8v0.8l-0.3,0.2L282,118.8z M281,97l-0.2-0.1l0.2,0V97z M276.1,80.9L276.1,80.9l-0.1-0.1
			L276.1,80.9z M264.1,43.8l0.9,1.2l0.9,1.1l-1-1.1L264.1,43.8L264.1,43.8z M248.7,54.8l0.9,1.8l-0.1,0L248.7,54.8L248.7,54.8z
			 M243.2,54.8l0.9,1H244L243.2,54.8L243.2,54.8z M241.3,54.8L241.3,54.8l-1.3-1.4L241.3,54.8z M237.7,50.8l0.7,0.8l1.6,0.9
			l-1.7-0.9L237.7,50.8L237.7,50.8z M190,148.8L190,148.8l1-0.9L190,148.8z M190.1,145.1l0.9,0.9L190.1,145.1l1.9-1.8L190.1,145.1z
			 M210,85.2l-1,0.8L210,85.2l1-1.8L210,85.2z M214.9,79.7l-1.9,0.9l-2,0.9l2-0.9L214.9,79.7l1.1-0.9L214.9,79.7z M217.5,75.1
			l-1.5,1L217.5,75.1l1.5-1.7L217.5,75.1z M226.7,63.8l-1.8-1h0.1L226.7,63.8L226.7,63.8z M230.3,60.8l-0.7-0.9l0,0l0.7,1H230.3z
			 M231,59.8l1-2.8l0,0L231,59.8z M236,53.8V54l-0.2-0.2H236z M240.3,57.8L240.3,57.8l1,1L240.3,57.8z M245.8,60.8l-1.9-0.9
			l-1.8-1.1h0.1l1.8,1.1L245.8,60.8L245.8,60.8z M246.7,67.8L248,67L246.7,67.8L246.7,67.8z M250,80.6l-1-1.8v-0.9v-1.8v-1.8
			l0.9-0.9l-0.9-0.9v-0.9v-0.9l1,0.9v0.9l0.9,0.9l-0.9,0.9v1.8v1.8v0.9l0.5,1.8l0.5,0.9L250,80.6z M263.2,43.8l-2.7-0.5l0.9-1.5h0.1
			l-0.9,1.5L263.2,43.8L263.2,43.8z M267,59.6l0.2,0.2l-0.2-0.1V59.6z M275,86v-0.8l0.1-0.1l-0.1,0.3l0.2,0.8L275,86z M284,115.4
			v-0.3l0.3-0.2l-0.1,0.2L284,115.4z M34.7,283.5l-0.7,0.7V284l0.5-0.7L34.7,283.5z M17,314.1v0.1l-0.7,0.7l0,0L17,314.1z M14,320.5
			l-1,0.9v-0.1l1-0.9V320.5z M19,312.8h-0.9l-1.1,0.4v-0.1l1.2-1.3H19V312.8z M21,309.6l-1,0.9l-1,0.9v-0.1l1-0.8l1-0.9V309.6z
			 M21.8,303.8l-1.8-0.5v-0.1l2,0.7H21.8z M24,302.3l-1,0.9v-0.1l1-0.9V302.3z M24,301.3l0.1-0.1l-0.1,0.3V301.3z M28,294.1l-1,1
			V295l1-1V294.1z M29,292.3l-1,1v-0.1l1-1V292.3z M29,291.4L29,291.4l0.4-0.2L29,291.4z M91.9,292.9L91.9,292.9L91.9,292.9
			L91.9,292.9z M77.4,286.8l-0.9-1l-0.9-1h0.1l1.9,2H77.4z M78.4,286.8l0.1,0.3l-0.3-0.3H78.4z M81.3,288.8l0.1,0.1l-0.3-0.1H81.3z
			 M88,293.8v-0.4l2,0.1l0.8-0.2l-0.5,0.6H88z M367.1,223.8h0.1l-0.9,2h-0.1L367.1,223.8z M366,232.4l1-1L366,232.4l-1,0.9
			L366,232.4z M331.8,85.6l1,0.9l0.9,2l-1.7-0.7h-1h-1.7l-1.8-1.1l-0.3-0.3L331.8,85.6z M194.2,251.8l-0.9-1h0.2l1,1H194.2z
			 M184.5,238l0.5,1l-1-1l-1-0.9v-1.3h1v1.3L184.5,238z M189.8,246.8L189.8,246.8l0.1,0.1L189.8,246.8z M188.9,246.8l-0.9-0.8
			l-0.2-0.3l0.2,0.3L188.9,246.8L188.9,246.8z M185,257.1v-0.2l1,0.9v0.3L185,257.1z M183.5,259.8l0.4,0.2l-0.6-0.2H183.5z
			 M186,259.8v-0.2l1,0.9v0.2L186,259.8z M201,228l-1.1,0.8h-0.1L201,228z M198.1,227.2L198.1,227.2l-1.6,0.8L198.1,227.2z
			 M203.6,248.8l1,1h-0.3l-0.9-1H203.6z M212.5,261.1l-1.1-0.3l0-0.1h0.6v-0.3l1-0.9v-0.7l0.3,0.8l-0.9,0.9L212.5,261.1z M210,252.5
			l0.9,0.3h-0.2h-0.9l-0.3-0.5L210,252.5z M210,266L210,266l-0.3,0.4L210,266z M213.3,255.7L213.3,255.7L213.3,255.7L213.3,255.7z
			 M212.5,255.8h0.4l-0.4,0.2L212.5,255.8z M207.3,249.8l0.4,0.7l-0.6-0.7H207.3z M214.3,258l0.2,0l0.8,0.7h-0.3L214.3,258z
			 M217.6,260.5l0.6,0.3l0.3,0.1h-0.6L217.6,260.5z M256.2,196.8H256v0.1l-1.7-1.5l-1.1-0.4l-0.2-0.1l1.5,0.4L256.2,196.8z
			 M285.9,218.8L285.9,218.8l-0.9,1H285L285.9,218.8z M298.5,218.8h0.1l-0.9,0.9l-0.1,0L298.5,218.8z M276,184.8l0.2,0l-1.8,2h-0.1
			L276,184.8z M283.2,250.3l0.9-0.5h0.1l-0.9,0.6l-1,0.8l-2.6,0.6h-0.1l2.6-0.7L283.2,250.3z M260,210.9v0.7l-0.3,0.1L260,210.9z
			 M263.5,195.8h-0.1l1.8-1.1l0,0L263.5,195.8z M263.3,216.8L263.3,216.8L263.3,216.8L263.3,216.8z M258.1,219.8L258.1,219.8l0.3,0
			L258.1,219.8z M257.7,216.1l-0.9-0.2l-0.1-0.1h1.2L257.7,216.1z M249.5,254.3l-0.2,0.1l-0.1-0.3L249.5,254.3z M251.3,254.8h1.2
			H251.3L251.3,254.8z M254,305v0.1l-0.2,0.1L254,305z M254,304.1l0.3-0.2l-0.3,0.3V304.1z M255.1,254.8h1l0.2,0.1L255.1,254.8z
			 M267,216.8h-0.1l2.9-1h0.1L267,216.8z M289,262.4l-0.1-0.1l-0.6-0.6l0.7,0.4V262.4z M290.6,251.9L290.6,251.9l0.7-1.1h0.1
			L290.6,251.9z M278.8,251.8l-0.1,0l-0.6-0.3v-0.2L278.8,251.8L278.8,251.8z M272,187.4l-4,0.9l3-0.9v-0.6h1V187.4z M268,192.7
			l-1,2.1h-0.1L268,192.7z M259.8,220.8l-0.1-0.1L259.8,220.8L259.8,220.8z M260,207.3l-0.2,0.2l-0.5-1.2l-1.2-1.5l0.8,0.7l1,1
			V207.3z M252,244.5v0.3h0L252,244.5z M247.7,252.8l-0.4-0.2l0.1-0.1L247.7,252.8z M238.9,276.2l-0.4,0.6l0.3-0.6L238.9,276.2z
			 M239,316.8L239,316.8l-1,1v-0.1L239,316.8z M284.1,292.8L284.1,292.8l1.1,1h-0.3L284.1,292.8z M287.8,293.8l0.6,0.4l-0.9-0.4
			H287.8z M293.1,219.8L293,220L293.1,219.8l1-1h0.1L293.1,219.8z M292.4,221.6L292.4,221.6l0.1-0.3L292.4,221.6z M289.4,220.8
			l-0.4-0.7l0.5,0.5L289.4,220.8z M278.9,162.8l-0.9,1.1l0.8-1.1H278.9z M277.9,157.7l0.9,0.9l0.8,0.6l-0.2,0.3l-0.8-0.9
			L277.9,157.7L277.9,157.7z M276.9,179.1L276.9,179.1l-0.7,0.7h-0.1L276.9,179.1z M272.5,183.6l-0.1,0l1.8-3.8h0.1L272.5,183.6z
			 M261.6,195.8h0.1l-0.9,1.5l-1,0.5h-0.1l0.9-0.5L261.6,195.8z M251.5,193.9L251.5,193.9l0.5,0v0.4L251.5,193.9z M252,190.9v0.9
			l-0.3,0.3l0.2-0.7l-0.3-1.6l-0.1-0.2l0.6,0.4V190.9z M251,188.5l-0.1-0.3l0.1,0.1V188.5z M245.2,253.5l-0.9-0.7h0.4l0.7,0.6
			L245.2,253.5z M225,259.8h-0.6H225L225,259.8z M224.2,259.8l-2.3,1h-0.4h-0.3l0.6-0.1l0.2-0.3l1.6-0.7H224.2z M250.5,290.5l1.8-1
			l0.1,0.1l-1.6,0.9l-0.9,0.9l-0.2-0.1L250.5,290.5z M257,319.6v0.1l-0.7,0.6L257,319.6z M269.4,298.8h0.5l1.2,0.9L269.4,298.8z
			 M281,317.6l0.3,0.5l-0.3-0.3V317.6z M301.1,216.3l0.6-1.3l-0.5,1.2l1.1,2l-0.3,0.7v-0.8L301.1,216.3z M302,220.8L302,220.8
			L302,220.8L302,220.8z M308.4,201.7l-1.7-0.9h0.1L308.4,201.7L308.4,201.7z M293,176.6l-1.6,1.2h-0.1L293,176.6z M280.5,175.7
			l-1.7,0.9l0.9,0.8l0.7,0.9l-0.7,0.9l-1.8,0.8l0,0l1.8-0.8l0.7-0.9l-0.7-0.9l-0.9-0.8l1.7-0.9l1.8-0.9h0.1L280.5,175.7z
			 M274.2,162.1l1.8-0.8l-1.8,0.9l-1.1,0.4L274.2,162.1z M271.6,160.8l0.9,2l-0.1,0l-0.9-2H271.6z M268.8,160.8l-0.8-0.4
			L268.8,160.8L268.8,160.8z M267,159.8h-0.1l-1.9-1.3L267,159.8z M264.4,159.8h-0.1l-0.8-1l0,0L264.4,159.8z M260.7,172.8
			L260.7,172.8l-1.7,1l-0.1,0L260.7,172.8z M253.4,172.8L253.4,172.8l-1.7,1h-0.1L253.4,172.8z M245.3,174.8L245.3,174.8l0.9-1h0.1
			L245.3,174.8z M241.8,243.5l0.5-0.5l-0.3,0.5l-2.8,0.8l0-0.1L241.8,243.5z M232.9,241.8L232.9,241.8l-1,1h-0.1L232.9,241.8z
			 M231,242.8l-0.9,1l-0.1-0.1l0.9-0.9H231z M218.2,235.4l-0.8,1.1l-0.1-0.1L218.2,235.4L218.2,235.4z M213.5,235.8h0.1l-0.6,1.3
			L213.5,235.8z M213,238l-1.1-1.5l0,0l0.1,0L213,238z M194.5,229.9l0.9-1l0.9-0.9l0,0l-0.9,0.9L194.5,229.9l-2.8,1.9h-0.1
			L194.5,229.9z M190.8,231.8L190.8,231.8l-0.9,1h-0.1L190.8,231.8z M188.9,232.8L188.9,232.8l-1.8,1h-0.1L188.9,232.8z
			 M184.6,232.7L184.6,232.7l-1.6,0.8L184.6,232.7z M181.6,259.8l0.4,0.2v0.5l-0.5-0.7H181.6z M175.3,260.8h-0.2l-0.8-0.8l0.1-0.1
			L175.3,260.8z M172,259.8v1h-1v-1.2l-1-0.5l0.1-0.2L172,259.8z M169.3,197.3l1.7,0.8v1.8l-1-2L169.3,197.3z M166.2,260.8l0.8,0.8
			l-0.1,0.1l-0.9-0.9H166.2z M163.2,268.8L163.2,268.8l0.8,0.7L163.2,268.8z M161,263.8L161,263.8L161,263.8L161,263.8z
			 M162.7,263.6l0.1-0.3l0.4,0.4l0.9,1l-0.9-0.4l-0.9-0.5h-0.7L162.7,263.6z M163.4,258.8l0.9,1l0.9,1H165l-0.9-1l-0.9-1H163.4z
			 M161.2,259.5l-0.2,0.1v0.1l-0.8-0.7L161.2,259.5z M150.5,256.8l-0.4-0.2l0.5,0.2H150.5z M152.5,242.8l0.3,0.3L152.5,242.8
			L152.5,242.8z M154.2,209.9l0.8,0.8v0.2L154.2,209.9L154.2,209.9z M154.8,212.7l-0.5,2.1h-0.1L154.8,212.7z M151.6,245.3l-0.9,0.9
			L150,248v-0.1l0.7-1.8l0.9-1l1.7-1.6l0.1,0.1L151.6,245.3z M149,249.7l1-0.9v0.1l-1,0.9V249.7z M149,253.3v0.1l-1,0.9v-0.1
			L149,253.3z M150.6,242.8l-0.9-1h0.1L150.6,242.8L150.6,242.8z M146,240.6l-0.9-0.8l-0.9-2l-0.9-2h-1.8l-0.5-0.5l2.3,0.5l0.9,2
			l0.9,2L146,240.6z M140,232.7l0.3,0.9l0,0L140,232.7z M143,231.8l-1-0.9v-0.1l1,0.9l1,0.9v0.1L143,231.8z M141.4,229.1l0.2-0.3
			h0.4v0.1v0.9v0.1L141.4,229.1z M140.8,230l-0.8,0.9L140.8,230L140.8,230z M138,262.5l-2,1.8l-0.1,0.1l0-0.1L138,262.5z M144,256.1
			l1,0.9l0.9,0.8l0,0.1l-1-0.9L144,256.1L144,256.1z M147,256.1l1,0.9L147,256.1L147,256.1z M146.9,214.5l-0.1,0.1L146.9,214.5
			L146.9,214.5z M136,233.8l0.3,0.3L136,233.8L136,233.8z M130.5,229.8l-1.2-1l0.7-0.9V227v-1.2h1v1.4v0.9l-1.2,0.8L130.5,229.8
			L130.5,229.8z M135.9,267.8l1.8-0.9l0.9-2h0.1l-0.9,2L135.9,267.8L135.9,267.8z M136,279.5l0.3,0.6l-0.3-0.3V279.5z M138,287.7
			l0.1,0.6l-0.1-0.3V287.7z M145.8,271.8l-0.9-0.9l-3.7,0.9H141v-0.2V271l0.4,0.6l3.5-0.9l1,1.1H145.8z M151.4,267.8l0.2,0.4
			l-0.4-0.4H151.4z M159,269.8v-1.3l-0.5-0.7h0.2l1.3,1v1H159z M163.1,270.5l-0.9-0.7h0.2L163.1,270.5L163.1,270.5z M165.9,267.8
			l-0.6-0.7l0.8,0.7H165.9z M174.1,265.8l-1-1h0.1L174.1,265.8L174.1,265.8z M182.3,270.8l-1.1-1.1l-1.1-1.2v-0.9l-0.7-0.9l-0.8-0.9
			h0.1l1.2,1l1.2,1v0.9l0.7,1.2l0.7,1H182.3z M186.8,270.8h0.1l0.9,1h-0.1L186.8,270.8z M189,274.9l-0.3,0.2l-1.1,0.8l-0.1-0.1
			L189,274.9z M188.1,276.3l0.9,0.6v0.2l-0.4-0.4L188.1,276.3z M195.2,272.8l0.2-0.3L195.2,272.8L195.2,272.8z M195.6,272.3l0.4-0.4
			h0.8L195.6,272.3z M198,272.1l-1.2-0.3h0.1h1l0.1,0l0,0V272.1z M243.4,325.8l-0.4-0.2V325l0.5,0.8H243.4z M252.4,323.8l-0.8-0.8
			l0,0l0.9,0.9H252.4z M256,322.4l-0.3,0.2l0.4-0.3l1-0.5h0.4h0.4L256,322.4z M264.3,322.4l0.3-0.1L264.3,322.4L264.3,322.4z
			 M272,321.3v-0.1l1-0.4h0.4L272,321.3z M277,320.8h-0.4l0.9-1h0.4L277,320.8z M281.6,319.3l0,0.5h-0.4L281.6,319.3z M283.6,321.8
			l-0.1-0.2l0.5-0.1v0.4H283.6z M285,319.6l-0.4,0.3l0.4-0.5V319.6z M297.4,278.5l0.3-0.3l0,0l-0.2,0.2L297.4,278.5z M303,265.8
			l-1-1L303,265.8l0.5,0.5L303,265.8z M313.1,209.7L313.1,209.7l1.7-0.9h0.1L313.1,209.7z M315.8,208.8h-0.1l1-1h0.1L315.8,208.8z
			 M319.5,208.8L319.5,208.8l1.6-1h0.1L319.5,208.8z M324.1,210.7l0.9,1L324.1,210.7L324.1,210.7z M329.3,215.8L329.3,215.8l0.9-1
			h0.1L329.3,215.8z M339.1,223.6l1-0.8l0,0l-0.9,0.9L339.1,223.6z M342.9,222.7l-0.9,1.1H342l0.8-1.1l1.8-1.9h0.1L342.9,222.7z
			 M350.2,224.3L350.2,224.3l1.8-0.9L350.2,224.3z M353.9,224.3l-0.2-0.2l1.3-0.7v0.4h0L353.9,224.3z M358,246.9l2.8-0.9l0,0.1
			L358,246.9z M424.9,289.9l1.8,1.9h-0.1L424.9,289.9L424.9,289.9z M430,292.7l-1.5-0.9h0.1L430,292.7z M427.5,283.8L427.5,283.8
			l-1.6,0.8l0,0L427.5,283.8z M418,282l-1.2,0.8h-0.1L418,282z M383.5,280.9l-1,0.9h-0.1l0.9-0.9l0.9-1.7l0.1,0L383.5,280.9z
			 M397.9,281.8h-0.1l2.7-1h0.1L397.9,281.8z M411.4,283.8h-0.1l0.9-0.9l1.7-0.9l0.1,0l-1.7,0.9L411.4,283.8z M423.1,292.8
			L423.1,292.8l1.9,0.8L423.1,292.8z M442.9,286.8l-1.8,1.1H441L442.9,286.8l0.9-2l-1-0.9h0.1l1,0.9L442.9,286.8z"/>
		<polygon class="st0" points="101.4,325.8 100,325.2 100,324.3 99.5,323.4 99,324.3 99,324.8 96.7,324.8 95.9,324.8 95,324.8 
			95,325.8 96.7,325.8 97.7,325.8 98.6,327.8 100,327.8 100,328.8 100.4,328.8 101,328 101,326.8 102.3,326.8 103.2,325.8 
			102.3,325.8 		"/>
		<polygon class="st0" points="108.7,324.8 109.6,325.8 111,325.8 111,325.2 111,324.8 109.6,324.8 		"/>
		<polygon class="st0" points="107,323.8 107,324.3 107.7,324.8 108.7,324.8 107.7,323.8 		"/>
		<polygon class="st0" points="85,328.8 85,329.8 83,329.8 83,330.7 83,331.6 85,330.8 86,330.8 86,329.8 86.8,328.8 85.8,328.8 		
			"/>
		<polygon class="st0" points="80.1,226 79.1,226.9 79.3,227 		"/>
		<polygon class="st0" points="54.8,50.8 55.6,52 56.6,52.9 57.5,53.8 58.4,53.8 59,53.8 59,55 59,55.8 59,56.7 59,57.6 60,58.7 
			62,60.8 63,60.8 64,60.8 64,61.4 64,62.2 65.9,63.1 67,64 67,63.1 68,62.2 68,62.8 68.5,62.8 70.2,61.8 71.2,61.8 73,62.9 
			73.9,61.9 74.9,62.8 77,62.8 77,64 78.6,63.1 79.5,62 81.3,62.8 82.1,62.8 83.1,62 84,63.1 84,64 84.9,62.8 85.8,62.8 87.6,62 
			88.4,60.5 89.4,61.8 90.3,61.8 92,61.8 92,59.5 93.1,58.8 94,58.8 94,57.6 94,56.7 95,55.8 95,55 94,54 94,53.1 94,51.8 92,51.8 
			92,51.2 93,50.4 94,51.2 94,50.4 93,49.5 93,48.6 93,47.7 95,46.7 95,45.8 94,46.8 92,46.8 92,45.8 92,45 93,44 93,43.1 91,42.2 
			91,43.1 90.1,44 89.4,44.8 88.4,44.8 88,44 88,43.1 86,44 84,44.8 83,44.8 83.9,42.1 83,41.3 83,42.2 82,44 82,45 81.1,45.8 
			80,45 80,43.1 81,42.2 81,40.4 80.1,39.4 79.1,40.4 78,39.4 78,40.4 77.4,41.1 76.7,41.8 76,41.8 76,41.3 76,40.4 76,38.6 
			75,37.7 74,39.2 73,40.8 72,40.8 71.2,40.8 70.2,40.8 68,43.1 68,41.8 68,41.3 68,40.4 68,39.4 68,38.6 68,36.8 69.4,36.8 
			70.2,36.8 71.2,34.8 70,34.8 70,34 71,33.1 71,32.2 71,30.3 69.4,28.8 67.6,28.8 68.5,29.8 69.4,31.8 68,31.8 68,32.2 68,33.1 
			68,34 67.5,34.9 67,34 67,32.2 66,33.1 66,31.3 66,30.8 64.8,30.8 64,29.5 64,32.2 62.1,31.3 63.1,32.2 63.9,33 62,33.8 61,33.8 
			61,33.1 61,32.2 60,31.3 60,32.2 60,32.8 59,32.8 59,32.2 58,33.1 58,33.8 59.3,33.8 60.2,33.8 61.2,34.8 63,34.8 64,35.8 
			65,36.7 65,37.8 65.7,37.8 67,37.8 67,39.8 65.7,39.8 63.9,38.8 62,38.8 63,39.5 63.9,40.5 64.8,41.1 63.9,41.8 63,41.8 62,41.3 
			61.2,40.8 60.2,40.8 58.4,39.6 56.7,38.7 55,39.4 55,40.8 56.6,40.8 58.4,40.8 59,41.3 59,41.8 60,41.8 60,43.1 60,44 59,45 
			59,46.7 60,45.8 60,46.7 59.2,47.8 58.4,48.8 57.5,48.8 56.6,48.8 55.6,48.8 54.8,49.6 53.8,48.5 52.9,50.2 53.8,50.8 		"/>
		<path class="st0" d="M49.3,182.8h-0.9l-1,0.9l-0.9,0.9l0.9,0.9l1-0.8l0.9,1l-1.3,0.6v1.4h0.4h0.9h1h0.9l-1.3,0.7l1.2-0.2v0.9v0.9
			l1.9-1.2h0.9l1,1h1.8l0.9-0.9l0.9,0.9H60v-1h1.2l0.8-0.5v0.5h1l0.9-1h0.9h1.8h1.8h1.7l1,1.1l1.9-0.6l0.9-0.9v-0.5h0.9l1.1-1.3
			v-0.7h1v-1.1v-0.9v-0.9l1-0.9v-0.9v-1v-0.9v-1.8v-0.9l1.2-0.9l-0.1-0.1l0.9-0.8l0,0l1-1l0.9-1h1H84v-1.7l1-0.9v0.9v0.7h1v-0.7
			v-0.9l-1.1-0.9l-1.1,0.9l-0.9-0.7l0.8-0.7H85v-1.3v-1l-1-1.8v-0.9v-1h-1.1h-1H81v-1h-0.9l-0.9,1h-0.7l-0.9-1h0.9h1l0.7-0.8l-1-0.8
			l-1.2-1v0.6h-0.4h-0.9h-0.9l-1.8-1l-0.9,1h-1.8l-1,1l-0.8,1.1l-2.8,1l0.9,0.9l1.8,1h0.8l-0.8,1H68v0.7v0.9l-2.1,0.9l-1.1-0.9
			l-1.8-0.9v-0.9l-1-0.8l-0.8-1h-1.8l-0.9,2h-0.9l0.5,0.7v0.9v1.3h0.4l-0.9,0.5l-0.9,0.5h-1l-0.7,1.1l1,2v0.9h1v1.8l0.5-0.8h1.9H60
			v0.8l-0.7,1.2h-0.9l-2.8,0.5l-1.8,1.5H52l1,1H52v1h-2.7h-0.9L47,181v0.8h1.4h1.8l0.9,1h-0.9H49.3z M73.9,169.9L73.9,169.9l0.8-1.1
			h0.2L73.9,169.9z M78.4,173.8H79v0.6L78.4,173.8z M74,164.6L74,164.6l-0.3,0.3L74,164.6z M72,164.8l0.9,0.7l-0.1,0l-1.1-0.8H72z
			 M71,165.5l-0.9,0.9l0,0L71,165.5z M54.8,178.1l0.9,0.7h1h0.9l0.9,1h-0.9h-1.8l-0.9-1h-1H53L54.8,178.1z"/>
		<polygon class="st0" points="49.3,188.8 49.8,188.5 48.4,188.8 		"/>
		<polygon class="st0" points="153.4,304.4 153.3,304.6 152.5,304.4 151.5,304.8 150.6,304.8 150.1,305 149.7,305.6 148.7,306 
			147.9,306.9 147.3,307.6 147.5,308.4 147.3,309.3 147.6,310.3 148,311.1 148,312 148.1,312.4 147.4,312.9 148.1,313.9 149,314.7 
			149,315.6 149.4,316.5 149.9,316.6 151,317.5 151,316.6 152,315.7 152,314.8 152,313 152,312 152,311.1 153,310.3 154,309.3 
			154,307.5 154,306.6 154,305.6 153.8,304.8 		"/>
		<polygon class="st0" points="152,322.1 151.5,320.8 152.4,320.8 151.8,320 151,319.4 151,318.4 149.7,319.8 149,319.8 
			147.9,319.8 146.9,319.8 146.1,320.8 145.1,320.8 143.2,320.8 142.1,321.9 141,321.2 141,322.1 141,322.9 141,323.9 141,324.8 
			141,326.6 141,327.5 141,329.8 142.3,329.8 144.2,329.8 143.1,330.5 142,331.2 142,332.1 142,333 141.5,333.8 140.5,333.8 
			141.3,334.7 140.3,336.6 141,337.5 141,338.5 141,339.3 143.2,339.8 144.2,339.8 145,339.8 145,339.3 145,338.5 146,337.7 
			147.9,338.8 148.7,338.8 149.9,339.5 151,338.5 151,337.5 151,335.7 151,333.8 152,332.1 152,331.2 152,330.2 152,329.3 
			152,328.4 152,327.8 152.4,327.8 153,326.6 153,325.8 152.4,325.8 153,323.9 153,322.8 152,322.8 		"/>
		<polygon class="st0" points="193.5,351.8 192.6,352.7 191.6,351.8 190.7,351.8 189.7,352.8 188.9,352.8 188,352.8 187.1,352.8 
			185.3,353.8 183.4,353.8 181.6,352.8 179.8,351.9 178.9,350.8 177,350.8 175,352 175,351.1 174.2,350.1 173.3,350.8 172,350.8 
			172,353 171,353.9 171,354.8 172.2,355.7 174.3,356.8 175.2,356.8 176.2,357.5 178.9,358.3 179.8,359.1 180.7,360.8 182.6,360.8 
			183.4,361.8 185.3,361.8 187,362.9 187,363.9 188,365.7 189.9,366.6 190.9,365.7 193,366.6 193,364.8 194,363.9 194,361.8 
			193.5,361.8 194.4,360.8 193,360.8 193,360.2 193,359.3 194,358.4 194,357.5 194,356.6 194,355.7 195.3,354.8 196.2,354.8 
			197,353 197,352 197,351.1 195.3,351.8 		"/>
		<polygon class="st0" points="89.4,182.8 88.4,181.8 87.6,181.8 87,181.8 87,183.8 87.6,183.8 88.4,183.8 		"/>
		<polygon class="st0" points="115,133 115,132.1 115,131.3 115,130.3 114.1,130.8 113.2,130.8 114,131.9 		"/>
		<polygon class="st0" points="127,125.7 126.1,126.7 128,125.7 128,124.9 129,124 129,123 129,122.1 129,121.2 129,119.4 
			128,122.1 128,122.8 126,122.8 126,124 127,124.9 		"/>
		<polygon class="st0" points="93,131.8 93,133.9 92,133 92,132.1 91,133 91,133.9 90,135.7 90,136.7 90,137.5 91.1,135.7 
			92.1,134.9 93,135.7 93,136.7 94,135.7 94,134.9 94.9,133.8 96,133.8 96,133 97,132.1 97,131.3 95.8,131.8 94.9,131.8 		"/>
		<polygon class="st0" points="92,174.9 92,173.9 91.2,173 90.3,173.9 89.4,174.9 90.2,175.7 		"/>
		<polygon class="st0" points="93,139.6 91,140.5 91,141.3 91,142.3 92.9,141.3 92.1,143.2 93,144.1 93,145 94,143.2 94,142.3 
			94,141.3 95,140.5 95,139.6 94.1,140.5 93,141.3 93,140.5 		"/>
		<polygon class="st0" points="90.3,151.8 91,151.8 92,151.8 92,150.4 91,150.1 91,150.4 		"/>
		<polygon class="st0" points="90.3,149.8 91,150.1 91,149.8 		"/>
		<path class="st0" d="M96,141v0.9v0.8h0.4l0.6,0.9v1.1h-1v0.8v1.2h-1.4l-0.6,0.6v0.9v0.9l-2,0.8l0.8,0.9l0.9,0.8l0.9-2h1l0.9-1h0.9
			l-0.9,1.1l-0.9,1.1l-1,0.8H96v1h-1.4h-0.9l-0.9,0.9l-0.9,1.8v1v0.9l0.9-0.8l0.9-1.7h0.9l1.4,0.7v1l-1.4,1.3h1l0.9,1H97v1h-1v1.2
			l-0.6,0.9l-0.8,0.9l-0.9,0.9H93v0.9l-1.1,1.1H91v1h-1v0.6v1.8v0.6h1v-0.6v-1.4h0.9l1.1,1.4v0.9l1,0.9v-0.9v-0.9l0.9-0.9l1.1,0.9
			v0.9l1-0.9v0.6h1v-1h1.2l0.9,1h0.9l1-0.6v0.6l-1,1h-1v0.8l-0.9-0.9l-1,0.9l-1.1,0.9v0.9v1.9v0.9l1.3,0.6h0.9l-1.9,1.8l0.9-0.8h0.9
			l1.7,1.1v0.9h-2v1h-1v0.8v1.2h-0.6l-1.4,0.7v1.3h1v0.5v0.5h1.3l-0.9,1H96v0.3v0.1l-1-0.9v-0.5h-0.9H93v-1.3l-2.6,1.3h-0.9h-0.9
			h-1.8l-0.9,1H85v1h0.9l0.9-0.8l1,0.8l0.8-1H89v1.3v0.9v0.9v0.9h-1.2l0.8,1l-0.8,1h-1l-0.9,0.8l-0.9,1l-0.9-0.9l-0.9,1.1h-0.9h-0.9
			h-0.9l-0.7-1.1l-0.7,0.9v0.9l-1.4,1.4H79v1h2.3l0.9-1h0.9H84v1.3v0.7v1h1.9h0.9l-0.9,1.1l0.9,1l1,1h0.8h1.8h0.9l0.7-1v0h1.8h0.9
			l-0.9,1l-0.9,1H92H91l-1,0.5v0.5h-0.8h-1.8h-0.9h-0.9l-0.9-1H84h-1.2h-0.9H81l0.9,0.5L81,205l-0.9-1.2H79v1.4l-0.8,1.6h-1.8
			L74,208v0.8h-1.2l-1.8,1H71v2h0.9H73v-1h1v0.8l0.8-0.9l1.6-0.9l1.8,1H80v0.8l1,1.2h1.8l1.2-1.2v-0.9v-0.9l0.8-0.9l0.8,0.9h0.9h0.9
			h0.9h0.9l0.9,0.9l0.9,0.9v1.2h1l0.9-1h1.8l0.9,1h0.7l0.9,1h0.9H99v-1h-0.8H97v-1.2l1.1-0.9l1.1,1l0.9,1.1h0.9h1v1h1.8h0.9h0.9h0.9
			l0.9,1h0.9l0.9,0.9l1.8-0.9h0.9l0.9,0.8l0.9-1.1l0.9-0.7h1l0.9-1l0.9-1.1l-0.9-0.9h-0.9l-1,0.9l-0.9-0.9h-0.9l-0.9-1l-1-1v-1h1
			h0.9l1.1,1l1.1-0.8v-1.2h-1.2l0.9-1h1h0.9h1.4v-1h0.4h0.9l0.9-0.7l0.9-0.6v-0.9l1-1.8v-0.9V198l-0.9-1.1l-1.8-1.1h-1.8l-0.9-0.9
			l-0.9,0.9h-1l-0.9,1.1l-0.9-0.8v-0.9v-0.5h0.8l1.1-1.2l1.1-1.2v-0.9v-1v-0.9l-1-0.9V188l-2.1-1.2H112v-1h0.9h0.9l1.2,1.3v-4.6
			v-0.9v-0.9v-0.9l-1-0.9v-1.1h-1.1l-0.9-1h-1v-0.6v-1.8v-0.9l1-0.9v-0.9l-1-0.9v-1v-0.9l1-1.9l-0.9-0.9l-0.9-1.9l-0.2,0.3l-0.8-1.7
			l-0.9-1l-0.9-1h-0.9h-1.8h-0.9l-1-1H102v-1h0.8l1,1h0.9h1.3v-1h1.4l0.9-1h-0.9h-0.9H106v-1h1.4h0.9l0.9,0.9l1-0.9h0.8v-1.3
			l1.9-0.8l1.1-1v-0.9l-1.1-1l0.9-1h1.2v-1h0.7l1.3-0.5v-0.9v-0.5h-1.3h-1H114v-1.3l-1.2-0.7H112h-1.8h-1h-1.8h-0.9l-1.8,1H104v-1.2
			v-0.8v-1.1l1.6-0.9h0.4V142l1.4-1.2h0.9h0.9l1-0.9l0.9-1.1h1.9v-0.5l0.9-0.6l-1.1-0.8H112h-1v-1.2l-2,0.9l-2-0.9v-1l-0.7,1.1
			l-0.6-0.9h0.8l-1.8-1H104v0.8l-1.2,2.2h1l-1,0.9l-1.8-1l0.9,1.1H101l-0.9,0.6l0.9,0.7v1v0.9l-0.9-1.2H99v-1h-0.7h-0.9l-1.4,1.4
			V141z M109.2,166.8L109.2,166.8L109.2,166.8l-0.3,0.5l-0.6-0.5H109.2z M104.7,168.8l-0.4,0.5L104.7,168.8L104.7,168.8z
			 M103.3,170.3l-0.4,0.5h-0.1L103.3,170.3z"/>
		<polygon class="st0" points="181.9,160.8 181.1,160.8 180.2,160.8 179.2,161.8 178.3,161.8 177.7,162.5 177,163.2 177,164.1 
			175.6,164.8 174.7,164.8 173.7,164.8 171.1,164.8 170.1,164.8 169,165.9 169,166.8 170,168.6 170,167.7 170,166.8 171.1,165.8 
			171.9,165.8 172.9,165.8 173.7,165.8 174.7,165.8 175.6,165.8 176.5,164.8 177.5,164.8 179.2,164.8 180.1,165.8 181,166.8 
			181,165.9 181.9,165 183,164.1 183,161.8 182,161.8 182,161.4 183,160.6 183.8,159.8 182.9,159.8 		"/>
		<polygon class="st0" points="179.2,185.8 180,185.8 180,185 180,184.1 180,183.2 180,181.8 179.2,181.8 178.4,181.1 177.7,182.3 
			177,181.3 177,181.8 176,181.8 176,183.2 176,184.8 177,184.8 177,185.8 		"/>
		<polygon class="st0" points="185,178.8 184,178.8 184,179.5 183.4,180.8 182.5,180.8 182,181.3 182,182.2 182.9,183.2 182,184 
			182,184.9 182.5,185.8 184.3,185.8 185,185.8 185,186.8 184.3,186.8 186.2,187.8 187.1,187.8 186.2,186.9 187.1,185.8 188,185.8 
			188.9,184 188,183.2 189.8,181.3 190.7,180.4 189.8,178.6 190.7,177.8 189.8,177.8 190.7,176.8 188.9,176.8 188,176.8 
			187.1,177.8 188,177.8 188.9,178.8 188,179.8 187.1,179.8 186,179.8 186,180.4 186,180.8 185.3,180.8 184.2,180.2 185,179.5 		"/>
		<polygon class="st0" points="181.6,188.8 181,188.8 181,189.5 181.7,190.1 182.5,190.8 183.4,190.8 184,190.8 184,190.3 
			183.4,189.8 182,189.8 182,188.8 		"/>
		<polygon class="st0" points="185,188.6 185,189.5 185,190.3 186,191.3 186,190.8 187,190.8 187,189.8 186.2,189.8 		"/>
		<polygon class="st0" points="269,350.1 269,349.2 268.1,347.8 267.1,347.8 266.2,347.3 264.4,346.8 262.5,346.8 261.7,345.8 
			260.8,344.8 259.8,344.8 258,345.8 258.9,346.8 259.8,346.8 261.7,346.8 262.5,347.5 264.4,348.2 265.3,349.2 267.1,350.1 
			268.1,350.9 268.9,351.9 269.9,353.8 271,353.8 271,351.9 270.1,350.9 		"/>
		<polygon class="st0" points="223,54.2 224,53.4 224,52.8 224.9,52.8 225.7,52.8 226.7,50 225.7,48.8 225,48.8 225,49.8 224,49.8 
			223,49.8 223,50.7 223,51.5 222.1,52.4 223,53.4 		"/>
	</g>
	<g>
		<g>
			<polygon class="st1" points="323,275.7 323,274.8 325,273.8 325,272.9 325.6,271.8 327,271.8 327,271.1 328.9,270.1 330,269.3 
				330,268.5 330,266.8 331,266.8 331,267.8 332,267.8 333,268.5 333,269.3 333.8,268.5 334.6,266.7 335.3,267.6 336,268.5 
				336,269.3 336,269.8 337.4,269.8 338,269.8 338,271.1 338.9,272 340.9,271.1 342,272 342,272.8 345.5,272.8 346.4,271.9 
				347.2,270.9 349,269.8 350.9,269.8 352,269.8 352,270.8 351,270.8 351,272 352,272.9 352,273.8 350,274.8 348.2,274.8 346,274.8 
				346,273.8 344.6,273.8 343,275.7 343,276.5 342.1,279.2 341,278.3 341,277.5 339.1,278.3 338.3,279.2 337.4,280.2 336.5,282.9 
				333.7,283.8 332.9,282.8 330,282.8 330,282 330.9,281 330.1,279.2 330.9,278.3 330,276.5 330,275.7 329.2,276.5 327.4,275.7 
				326.5,274.8 325.6,274.8 324.6,274.8 			"/>
			<polygon class="st1" points="305,268.5 305.9,267.6 306.7,268.8 307.6,269.8 308,269.8 308,266.7 309.4,264.8 310.3,264.8 
				311.1,265.8 313,264.7 314.8,262.8 316,262.8 316,263.8 317,263.8 317,262.2 317,261.2 317,259.5 317.5,261.2 318,262.2 
				318,263.1 319.4,264.8 318,264.8 318,265.8 318,266.7 318,267.6 319.6,268.5 321.2,269.3 324,267.6 325.6,266.8 326.5,266.8 
				327.5,265.8 328.3,268.6 329.2,267.6 330,265.8 330,264.8 331,264.8 332,265.7 332.9,264.8 333.7,264.8 336,264.8 336,265.8 
				337,265.8 337,264.8 338.3,264.8 339.1,262.1 341,261.2 341,262.8 342,262.8 344.6,260.2 346.4,259.4 347.2,258.6 348.2,257.8 
				349,257.8 350.9,258.6 351.8,257.7 350.9,256.7 352.7,255.8 353.6,253.9 354.6,252.8 355.4,252.8 356,252.1 356,251.3 
				357.3,251.8 358.1,251.8 358,251.3 358,246.9 360.8,245.9 361.8,243.4 362.7,242.8 365.4,242.8 367.2,242.8 368,239.6 368,236.9 
				366.3,233.8 365,233.8 365,233.3 366,232.4 367,231.4 367,230.8 365.4,230.8 364.5,230 365.4,228.9 367.1,228 368,227.1 
				368,223.8 367.2,223.8 366.3,225.8 364.5,225.8 362.7,223.8 361,223.8 361,225.3 360,224.3 360,223.8 359.2,223.8 357,223.8 
				357,223.8 356,223.8 356,223.4 353.9,224.3 353,223.4 352,222.5 352,223.4 350.2,224.3 347.6,222.5 347,221.6 347,220.8 
				344.7,220.8 342.9,222.7 342,223.8 341,223.8 340.2,222.7 339.2,223.7 338.3,222.8 337.5,222.8 335.7,222.8 335,222.8 335,221.6 
				334,218.9 334,217.8 332.1,217.8 331,216.3 331,214.8 330.3,214.8 329.3,215.8 326.6,215.8 325,215.8 325,215.3 325,213.5 
				325,211.7 324.2,210.7 323,209 322.1,207.8 321.1,207.8 319.5,208.8 317.6,207.8 316.7,207.8 315.8,208.8 314.9,208.8 
				313.1,209.7 311.9,209.1 310,209.9 310,210.7 310,209.9 310,211.8 308.6,211.8 307.7,211.8 306.8,211.8 305.8,210.8 304.1,210.8 
				303.1,210.8 302,212.5 302,214.2 301.2,216.2 302.3,218.2 302,218.9 302,220.8 301.5,220.7 299.5,218.8 298.7,218.8 297.8,219.7 
				295,218.8 294.2,218.8 293.1,219.8 292.8,220.8 292.4,221.6 291.4,219.2 290.4,218.9 289.4,220.8 288.8,219.7 287.9,218.8 
				286,218.8 285.1,219.8 282.4,219.8 281.5,218.8 280.5,218.8 277,218 275.3,216.8 272.5,215.8 269.9,215.8 267,216.8 265.4,216.8 
				263.5,216.7 261.9,217.8 261.5,218.8 260.5,219.8 259.8,220.8 259,219.8 257.8,219.8 257.2,221.6 257.5,221.9 257.1,222.5 
				256.2,223.4 257.1,224.3 258.9,226.1 259.9,227.1 259,227.9 259,228.9 260,229.9 260,231.4 260,232.8 258.9,232.8 257.9,232.8 
				257.1,234.4 255.2,235.2 252.7,237.8 251.6,238.7 250.9,240.6 252,243.2 252,244.8 250.7,244.8 249.9,244.8 248,247.6 247,250.3 
				247,252.1 248.9,254 250.7,254.8 252.7,254.8 256.2,254.8 257.9,255.8 259.8,256.7 262.5,255.8 263.3,254.9 265.2,255.8 
				266.2,256.7 267.8,255.7 269.8,253.8 271.4,253.8 273.3,253.8 274.2,253.8 275.1,251.8 276.1,251.8 278,251.8 278,251.3 
				278.8,251.8 279.7,251.8 282.3,251.1 283.2,250.3 284.2,249.8 287,249.8 287,250.8 288.6,250.8 289.6,251.5 290.5,252 
				291.3,250.8 292.3,250.8 293.2,251.9 295,253.1 295,252.1 297,253.1 297,254.1 297,254.8 298,254.8 298,256.7 298,258.5 
				298,259.8 298.5,259.8 299.4,259.8 300,261.2 300,262.8 301.3,262.8 302,262.8 302,263.9 302,264.9 303,265.8 304,266.7 
				305,267.6 			"/>
			<polygon class="st1" points="298.4,277.6 297.2,274.7 299,270.8 299,267.8 300,263.8 299,261.8 297.8,259.5 303,256.8 306,266.8 
				304.9,268.5 304,269.2 305.8,269.8 307,269.8 308,271.1 308,272.8 305.8,272.9 304.9,273.8 301,275.8 301.3,276.5 			"/>
		</g>
	</g>
</g>
</svg>
